<svg xmlns="http://www.w3.org/2000/svg" xmlns:xlink="http://www.w3.org/1999/xlink" contentStyleType="text/css" data-diagram-type="CLASS" height="795px" preserveAspectRatio="none" style="width:1595px;height:795px;background:#FFFFFF;" version="1.1" viewBox="0 0 1595 795" width="1595px" zoomAndPan="magnify"><defs/><g><!--class Person--><g class="entity" data-entity="Person" data-source-line="1" data-uid="ent0002" id="entity_Person"><rect fill="#F1F1F1" height="113.1875" rx="2.5" ry="2.5" style="stroke:#181818;stroke-width:0.5;" width="196.6797" x="1391.66" y="55.89"/><ellipse cx="1461.9779" cy="71.89" fill="#ADD1B2" rx="11" ry="11" style="stroke:#181818;stroke-width:1;"/><path d="M1464.9466,77.5306 Q1464.3685,77.8275 1463.7279,77.9681 Q1463.0872,78.1244 1462.3841,78.1244 Q1459.8841,78.1244 1458.556,76.4837 Q1457.2435,74.8275 1457.2435,71.7025 Q1457.2435,68.5775 1458.556,66.9212 Q1459.8841,65.265 1462.3841,65.265 Q1463.0872,65.265 1463.7279,65.4212 Q1464.3841,65.5775 1464.9466,65.8744 L1464.9466,68.5931 Q1464.3216,68.015 1463.7279,67.7494 Q1463.1341,67.4681 1462.5091,67.4681 Q1461.1654,67.4681 1460.4779,68.5462 Q1459.7904,69.6087 1459.7904,71.7025 Q1459.7904,73.7962 1460.4779,74.8744 Q1461.1654,75.9369 1462.5091,75.9369 Q1463.1341,75.9369 1463.7279,75.6712 Q1464.3216,75.39 1464.9466,74.8119 L1464.9466,77.5306 Z " fill="#000000"/><text fill="#000000" font-family="sans-serif" font-size="14" lengthAdjust="spacing" textLength="47.5439" x="1482.4779" y="76.7367">Person</text><line style="stroke:#181818;stroke-width:0.5;" x1="1392.66" x2="1587.3397" y1="87.89" y2="87.89"/><ellipse cx="1402.66" cy="101.5384" fill="none" rx="3" ry="3" style="stroke:#038048;stroke-width:1;"/><text fill="#000000" font-family="sans-serif" font-size="14" lengthAdjust="spacing" textLength="87.623" x="1411.66" y="104.8851">discernment</text><ellipse cx="1402.66" cy="117.8353" fill="none" rx="3" ry="3" style="stroke:#038048;stroke-width:1;"/><text fill="#000000" font-family="sans-serif" font-size="14" lengthAdjust="spacing" textLength="77.752" x="1411.66" y="121.182">mind_state</text><line style="stroke:#181818;stroke-width:0.5;" x1="1392.66" x2="1587.3397" y1="128.4838" y2="128.4838"/><ellipse cx="1402.66" cy="142.1322" fill="#84BE84" rx="3" ry="3" style="stroke:#038048;stroke-width:1;"/><text fill="#000000" font-family="sans-serif" font-size="14" lengthAdjust="spacing" textLength="170.6797" x="1411.66" y="145.4789">attend_inappropriately()</text><ellipse cx="1402.66" cy="158.4291" fill="#84BE84" rx="3" ry="3" style="stroke:#038048;stroke-width:1;"/><text fill="#000000" font-family="sans-serif" font-size="14" lengthAdjust="spacing" textLength="157.917" x="1411.66" y="161.7757">attend_appropriately()</text></g><!--class Mind--><g class="entity" data-entity="Mind" data-source-line="8" data-uid="ent0003" id="entity_Mind"><rect fill="#F1F1F1" height="194.6719" rx="2.5" ry="2.5" style="stroke:#181818;stroke-width:0.5;" width="119.1328" x="1242.43" y="436.26"/><ellipse cx="1281.4619" cy="452.26" fill="#ADD1B2" rx="11" ry="11" style="stroke:#181818;stroke-width:1;"/><path d="M1284.4307,457.9006 Q1283.8526,458.1975 1283.2119,458.3381 Q1282.5713,458.4944 1281.8682,458.4944 Q1279.3682,458.4944 1278.0401,456.8538 Q1276.7276,455.1975 1276.7276,452.0725 Q1276.7276,448.9475 1278.0401,447.2913 Q1279.3682,445.635 1281.8682,445.635 Q1282.5713,445.635 1283.2119,445.7913 Q1283.8682,445.9475 1284.4307,446.2444 L1284.4307,448.9631 Q1283.8057,448.385 1283.2119,448.1194 Q1282.6182,447.8381 1281.9932,447.8381 Q1280.6494,447.8381 1279.9619,448.9163 Q1279.2744,449.9788 1279.2744,452.0725 Q1279.2744,454.1663 1279.9619,455.2444 Q1280.6494,456.3069 1281.9932,456.3069 Q1282.6182,456.3069 1283.2119,456.0413 Q1283.8057,455.76 1284.4307,455.1819 L1284.4307,457.9006 Z " fill="#000000"/><text fill="#000000" font-family="sans-serif" font-size="14" lengthAdjust="spacing" textLength="33.7285" x="1300.8024" y="457.1067">Mind</text><line style="stroke:#181818;stroke-width:0.5;" x1="1243.43" x2="1360.5628" y1="468.26" y2="468.26"/><ellipse cx="1253.43" cy="481.9084" fill="none" rx="3" ry="3" style="stroke:#038048;stroke-width:1;"/><text fill="#000000" font-family="sans-serif" font-size="14" lengthAdjust="spacing" textLength="45.3359" x="1262.43" y="485.2551">sullied</text><ellipse cx="1253.43" cy="498.2053" fill="none" rx="3" ry="3" style="stroke:#038048;stroke-width:1;"/><text fill="#000000" font-family="sans-serif" font-size="14" lengthAdjust="spacing" textLength="63.8955" x="1262.43" y="501.552">luminous</text><ellipse cx="1253.43" cy="514.5022" fill="none" rx="3" ry="3" style="stroke:#038048;stroke-width:1;"/><text fill="#000000" font-family="sans-serif" font-size="14" lengthAdjust="spacing" textLength="47.708" x="1262.43" y="517.8489">defiled</text><ellipse cx="1253.43" cy="530.7991" fill="none" rx="3" ry="3" style="stroke:#038048;stroke-width:1;"/><text fill="#000000" font-family="sans-serif" font-size="14" lengthAdjust="spacing" textLength="36.7979" x="1262.43" y="534.1457">freed</text><ellipse cx="1253.43" cy="547.0959" fill="none" rx="3" ry="3" style="stroke:#038048;stroke-width:1;"/><text fill="#000000" font-family="sans-serif" font-size="14" lengthAdjust="spacing" textLength="39.6074" x="1262.43" y="550.4426">pliant</text><ellipse cx="1253.43" cy="563.3928" fill="none" rx="3" ry="3" style="stroke:#038048;stroke-width:1;"/><text fill="#000000" font-family="sans-serif" font-size="14" lengthAdjust="spacing" textLength="68.5781" x="1262.43" y="566.7395">malleable</text><ellipse cx="1253.43" cy="579.6897" fill="none" rx="3" ry="3" style="stroke:#038048;stroke-width:1;"/><text fill="#000000" font-family="sans-serif" font-size="14" lengthAdjust="spacing" textLength="42.0137" x="1262.43" y="583.0364">brittle</text><ellipse cx="1253.43" cy="595.9866" fill="none" rx="3" ry="3" style="stroke:#038048;stroke-width:1;"/><text fill="#000000" font-family="sans-serif" font-size="14" lengthAdjust="spacing" textLength="93.1328" x="1262.43" y="599.3332">concentrated</text><ellipse cx="1253.43" cy="612.2834" fill="none" rx="3" ry="3" style="stroke:#038048;stroke-width:1;"/><text fill="#000000" font-family="sans-serif" font-size="14" lengthAdjust="spacing" textLength="66.418" x="1262.43" y="615.6301">scattered</text><line style="stroke:#181818;stroke-width:0.5;" x1="1243.43" x2="1360.5628" y1="622.9319" y2="622.9319"/></g><!--class Attention--><g class="entity" data-entity="Attention" data-source-line="20" data-uid="ent0004" id="entity_Attention"><rect fill="#F1F1F1" height="64.2969" rx="2.5" ry="2.5" style="stroke:#181818;stroke-width:0.5;" width="264.041" x="523.98" y="294.97"/><ellipse cx="619.3208" cy="310.97" fill="#ADD1B2" rx="11" ry="11" style="stroke:#181818;stroke-width:1;"/><path d="M622.2896,316.6106 Q621.7114,316.9075 621.0708,317.0481 Q620.4302,317.2044 619.7271,317.2044 Q617.2271,317.2044 615.8989,315.5637 Q614.5864,313.9075 614.5864,310.7825 Q614.5864,307.6575 615.8989,306.0012 Q617.2271,304.345 619.7271,304.345 Q620.4302,304.345 621.0708,304.5012 Q621.7271,304.6575 622.2896,304.9544 L622.2896,307.6731 Q621.6646,307.095 621.0708,306.8294 Q620.4771,306.5481 619.8521,306.5481 Q618.5083,306.5481 617.8208,307.6262 Q617.1333,308.6887 617.1333,310.7825 Q617.1333,312.8762 617.8208,313.9544 Q618.5083,315.0169 619.8521,315.0169 Q620.4771,315.0169 621.0708,314.7512 Q621.6646,314.47 622.2896,313.8919 L622.2896,316.6106 Z " fill="#000000"/><text fill="#000000" font-family="sans-serif" font-size="14" lengthAdjust="spacing" textLength="64.8594" x="639.8208" y="315.8167">Attention</text><line style="stroke:#181818;stroke-width:0.5;" x1="524.98" x2="787.021" y1="326.97" y2="326.97"/><line style="stroke:#181818;stroke-width:0.5;" x1="524.98" x2="787.021" y1="334.97" y2="334.97"/><ellipse cx="534.98" cy="348.6184" fill="#84BE84" rx="3" ry="3" style="stroke:#038048;stroke-width:1;"/><text fill="#000000" font-family="sans-serif" font-size="14" lengthAdjust="spacing" textLength="238.041" x="543.98" y="351.9651">type: (Inappropriate, Appropriate)</text></g><!--class Idea--><g class="entity" data-entity="Idea" data-source-line="24" data-uid="ent0005" id="entity_Idea"><rect fill="#F1F1F1" height="80.5938" rx="2.5" ry="2.5" style="stroke:#181818;stroke-width:0.5;" width="220.3047" x="986.85" y="493.3"/><ellipse cx="1077.6483" cy="509.3" fill="#ADD1B2" rx="11" ry="11" style="stroke:#181818;stroke-width:1;"/><path d="M1080.6171,514.9406 Q1080.039,515.2375 1079.3983,515.3781 Q1078.7577,515.5344 1078.0546,515.5344 Q1075.5546,515.5344 1074.2265,513.8938 Q1072.914,512.2375 1072.914,509.1125 Q1072.914,505.9875 1074.2265,504.3312 Q1075.5546,502.675 1078.0546,502.675 Q1078.7577,502.675 1079.3983,502.8312 Q1080.0546,502.9875 1080.6171,503.2844 L1080.6171,506.0031 Q1079.9921,505.425 1079.3983,505.1594 Q1078.8046,504.8781 1078.1796,504.8781 Q1076.8358,504.8781 1076.1483,505.9562 Q1075.4608,507.0187 1075.4608,509.1125 Q1075.4608,511.2062 1076.1483,512.2844 Q1076.8358,513.3469 1078.1796,513.3469 Q1078.8046,513.3469 1079.3983,513.0813 Q1079.9921,512.8 1080.6171,512.2219 L1080.6171,514.9406 Z " fill="#000000"/><text fill="#000000" font-family="sans-serif" font-size="14" lengthAdjust="spacing" textLength="30.208" x="1098.1483" y="514.1467">Idea</text><line style="stroke:#181818;stroke-width:0.5;" x1="987.85" x2="1206.1547" y1="525.3" y2="525.3"/><ellipse cx="997.85" cy="538.9484" fill="none" rx="3" ry="3" style="stroke:#038048;stroke-width:1;"/><text fill="#000000" font-family="sans-serif" font-size="14" lengthAdjust="spacing" textLength="176.5586" x="1006.85" y="542.2951">fit_for_attention: boolean</text><ellipse cx="997.85" cy="555.2453" fill="none" rx="3" ry="3" style="stroke:#038048;stroke-width:1;"/><text fill="#000000" font-family="sans-serif" font-size="14" lengthAdjust="spacing" textLength="194.3047" x="1006.85" y="558.592">unfit_for_attention: boolean</text><line style="stroke:#181818;stroke-width:0.5;" x1="987.85" x2="1206.1547" y1="565.8938" y2="565.8938"/></g><!--class Effluent--><g class="entity" data-entity="Effluent" data-source-line="29" data-uid="ent0006" id="entity_Effluent"><rect fill="#F1F1F1" height="80.5938" rx="2.5" ry="2.5" style="stroke:#181818;stroke-width:0.5;" width="363.1074" x="474.45" y="707.94"/><ellipse cx="624.533" cy="723.94" fill="#ADD1B2" rx="11" ry="11" style="stroke:#181818;stroke-width:1;"/><path d="M627.5018,729.5806 Q626.9236,729.8775 626.283,730.0181 Q625.6424,730.1744 624.9393,730.1744 Q622.4393,730.1744 621.1111,728.5337 Q619.7986,726.8775 619.7986,723.7525 Q619.7986,720.6275 621.1111,718.9712 Q622.4393,717.315 624.9393,717.315 Q625.6424,717.315 626.283,717.4712 Q626.9393,717.6275 627.5018,717.9244 L627.5018,720.6431 Q626.8768,720.065 626.283,719.7994 Q625.6893,719.5181 625.0643,719.5181 Q623.7205,719.5181 623.033,720.5962 Q622.3455,721.6587 622.3455,723.7525 Q622.3455,725.8462 623.033,726.9244 Q623.7205,727.9869 625.0643,727.9869 Q625.6893,727.9869 626.283,727.7212 Q626.8768,727.44 627.5018,726.8619 L627.5018,729.5806 Z " fill="#000000"/><text fill="#000000" font-family="sans-serif" font-size="14" lengthAdjust="spacing" textLength="54.4414" x="645.033" y="728.7867">Effluent</text><line style="stroke:#181818;stroke-width:0.5;" x1="475.45" x2="836.5574" y1="739.94" y2="739.94"/><line style="stroke:#181818;stroke-width:0.5;" x1="475.45" x2="836.5574" y1="747.94" y2="747.94"/><ellipse cx="485.45" cy="761.5884" fill="#84BE84" rx="3" ry="3" style="stroke:#038048;stroke-width:1;"/><text fill="#000000" font-family="sans-serif" font-size="14" lengthAdjust="spacing" textLength="281.5791" x="494.45" y="764.9351">type: (Sensuality, Becoming, Ignorance)</text><ellipse cx="485.45" cy="777.8853" fill="#84BE84" rx="3" ry="3" style="stroke:#038048;stroke-width:1;"/><text fill="#000000" font-family="sans-serif" font-size="14" lengthAdjust="spacing" textLength="337.1074" x="494.45" y="781.232">state: (unarisen, arisen, abandoned, increasing)</text></g><!--class View--><g class="entity" data-entity="View" data-source-line="34" data-uid="ent0007" id="entity_View"><rect fill="#F1F1F1" height="80.5938" rx="2.5" ry="2.5" style="stroke:#181818;stroke-width:0.5;" width="190.8691" x="1206.57" y="707.94"/><ellipse cx="1280.9894" cy="723.94" fill="#ADD1B2" rx="11" ry="11" style="stroke:#181818;stroke-width:1;"/><path d="M1283.9582,729.5806 Q1283.3801,729.8775 1282.7394,730.0181 Q1282.0988,730.1744 1281.3957,730.1744 Q1278.8957,730.1744 1277.5676,728.5337 Q1276.2551,726.8775 1276.2551,723.7525 Q1276.2551,720.6275 1277.5676,718.9712 Q1278.8957,717.315 1281.3957,717.315 Q1282.0988,717.315 1282.7394,717.4712 Q1283.3957,717.6275 1283.9582,717.9244 L1283.9582,720.6431 Q1283.3332,720.065 1282.7394,719.7994 Q1282.1457,719.5181 1281.5207,719.5181 Q1280.1769,719.5181 1279.4894,720.5962 Q1278.8019,721.6587 1278.8019,723.7525 Q1278.8019,725.8462 1279.4894,726.9244 Q1280.1769,727.9869 1281.5207,727.9869 Q1282.1457,727.9869 1282.7394,727.7212 Q1283.3332,727.44 1283.9582,726.8619 L1283.9582,729.5806 Z " fill="#000000"/><text fill="#000000" font-family="sans-serif" font-size="14" lengthAdjust="spacing" textLength="33.5303" x="1301.4894" y="728.7867">View</text><line style="stroke:#181818;stroke-width:0.5;" x1="1207.57" x2="1396.4391" y1="739.94" y2="739.94"/><line style="stroke:#181818;stroke-width:0.5;" x1="1207.57" x2="1396.4391" y1="747.94" y2="747.94"/><ellipse cx="1217.57" cy="761.5884" fill="#84BE84" rx="3" ry="3" style="stroke:#038048;stroke-width:1;"/><text fill="#000000" font-family="sans-serif" font-size="14" lengthAdjust="spacing" textLength="164.8691" x="1226.57" y="764.9351">type: (SelfIdentityView)</text><ellipse cx="1217.57" cy="777.8853" fill="#84BE84" rx="3" ry="3" style="stroke:#038048;stroke-width:1;"/><text fill="#000000" font-family="sans-serif" font-size="14" lengthAdjust="spacing" textLength="163.8506" x="1226.57" y="781.232">state: (arisen, fettered)</text></g><!--class Condition--><g class="entity" data-entity="Condition" data-source-line="39" data-uid="ent0008" id="entity_Condition"><rect fill="#F1F1F1" height="210.9688" rx="2.5" ry="2.5" style="stroke:#181818;stroke-width:0.5;" width="226.5186" x="209.74" y="7"/><ellipse cx="285.3455" cy="23" fill="#ADD1B2" rx="11" ry="11" style="stroke:#181818;stroke-width:1;"/><path d="M288.3142,28.6406 Q287.7361,28.9375 287.0955,29.0781 Q286.4548,29.2344 285.7517,29.2344 Q283.2517,29.2344 281.9236,27.5938 Q280.6111,25.9375 280.6111,22.8125 Q280.6111,19.6875 281.9236,18.0313 Q283.2517,16.375 285.7517,16.375 Q286.4548,16.375 287.0955,16.5313 Q287.7517,16.6875 288.3142,16.9844 L288.3142,19.7031 Q287.6892,19.125 287.0955,18.8594 Q286.5017,18.5781 285.8767,18.5781 Q284.533,18.5781 283.8455,19.6563 Q283.158,20.7188 283.158,22.8125 Q283.158,24.9063 283.8455,25.9844 Q284.533,27.0469 285.8767,27.0469 Q286.5017,27.0469 287.0955,26.7813 Q287.6892,26.5 288.3142,25.9219 L288.3142,28.6406 Z " fill="#000000"/><text fill="#000000" font-family="sans-serif" font-size="14" lengthAdjust="spacing" textLength="66.8076" x="305.8455" y="27.8467">Condition</text><line style="stroke:#181818;stroke-width:0.5;" x1="210.74" x2="435.2586" y1="39" y2="39"/><ellipse cx="220.74" cy="52.6484" fill="none" rx="3" ry="3" style="stroke:#038048;stroke-width:1;"/><text fill="#000000" font-family="sans-serif" font-size="14" lengthAdjust="spacing" textLength="31.2744" x="229.74" y="55.9951">type</text><text fill="#000000" font-family="sans-serif" font-size="14" lengthAdjust="spacing" textLength="126.4854" x="229.74" y="72.292">LackOfConviction,</text><text fill="#000000" font-family="sans-serif" font-size="14" lengthAdjust="spacing" textLength="179.9834" x="229.74" y="88.5889">NotHearingTrueDhamma,</text><text fill="#000000" font-family="sans-serif" font-size="14" lengthAdjust="spacing" textLength="200.5186" x="229.74" y="104.8857">NotAssociatingWithIntegrity,</text><text fill="#000000" font-family="sans-serif" font-size="14" lengthAdjust="spacing" textLength="102.1084" x="229.74" y="121.1826">MuddledTruth,</text><text fill="#000000" font-family="sans-serif" font-size="14" lengthAdjust="spacing" textLength="87.9717" x="229.74" y="137.4795">Unalertness,</text><text fill="#000000" font-family="sans-serif" font-size="14" lengthAdjust="spacing" textLength="148.5107" x="229.74" y="153.7764">ScatteredAwareness,</text><text fill="#000000" font-family="sans-serif" font-size="14" lengthAdjust="spacing" textLength="78.3535" x="229.74" y="170.0732">Conviction,</text><text fill="#000000" font-family="sans-serif" font-size="14" lengthAdjust="spacing" textLength="155.4561" x="229.74" y="186.3701">HearingTrueDhamma,</text><text fill="#000000" font-family="sans-serif" font-size="14" lengthAdjust="spacing" textLength="171.541" x="229.74" y="202.667">AssociatingWithIntegrity</text><line style="stroke:#181818;stroke-width:0.5;" x1="210.74" x2="435.2586" y1="209.9688" y2="209.9688"/></g><!--class Outcome--><g class="entity" data-entity="Outcome" data-source-line="52" data-uid="ent0009" id="entity_Outcome"><rect fill="#F1F1F1" height="194.6719" rx="2.5" ry="2.5" style="stroke:#181818;stroke-width:0.5;" width="249.0635" x="336.47" y="436.26"/><ellipse cx="424.804" cy="452.26" fill="#ADD1B2" rx="11" ry="11" style="stroke:#181818;stroke-width:1;"/><path d="M427.7727,457.9006 Q427.1946,458.1975 426.554,458.3381 Q425.9134,458.4944 425.2102,458.4944 Q422.7102,458.4944 421.3821,456.8538 Q420.0696,455.1975 420.0696,452.0725 Q420.0696,448.9475 421.3821,447.2913 Q422.7102,445.635 425.2102,445.635 Q425.9134,445.635 426.554,445.7913 Q427.2102,445.9475 427.7727,446.2444 L427.7727,448.9631 Q427.1477,448.385 426.554,448.1194 Q425.9602,447.8381 425.3352,447.8381 Q423.9915,447.8381 423.304,448.9163 Q422.6165,449.9788 422.6165,452.0725 Q422.6165,454.1663 423.304,455.2444 Q423.9915,456.3069 425.3352,456.3069 Q425.9602,456.3069 426.554,456.0413 Q427.1477,455.76 427.7727,455.1819 L427.7727,457.9006 Z " fill="#000000"/><text fill="#000000" font-family="sans-serif" font-size="14" lengthAdjust="spacing" textLength="63.8955" x="445.304" y="457.1067">Outcome</text><line style="stroke:#181818;stroke-width:0.5;" x1="337.47" x2="584.5335" y1="468.26" y2="468.26"/><ellipse cx="347.47" cy="481.9084" fill="none" rx="3" ry="3" style="stroke:#038048;stroke-width:1;"/><text fill="#000000" font-family="sans-serif" font-size="14" lengthAdjust="spacing" textLength="31.2744" x="356.47" y="485.2551">type</text><text fill="#000000" font-family="sans-serif" font-size="14" lengthAdjust="spacing" textLength="223.0635" x="356.47" y="501.552">InabilityToUnderstandDhamma,</text><text fill="#000000" font-family="sans-serif" font-size="14" lengthAdjust="spacing" textLength="68.0859" x="356.47" y="517.8489">Suffering,</text><text fill="#000000" font-family="sans-serif" font-size="14" lengthAdjust="spacing" textLength="56.8066" x="356.47" y="534.1457">Decline,</text><text fill="#000000" font-family="sans-serif" font-size="14" lengthAdjust="spacing" textLength="100.7822" x="356.47" y="550.4426">ClearKnowing,</text><text fill="#000000" font-family="sans-serif" font-size="14" lengthAdjust="spacing" textLength="59.7803" x="356.47" y="566.7395">Release,</text><text fill="#000000" font-family="sans-serif" font-size="14" lengthAdjust="spacing" textLength="88.3887" x="356.47" y="583.0364">LessPassion,</text><text fill="#000000" font-family="sans-serif" font-size="14" lengthAdjust="spacing" textLength="96.3047" x="356.47" y="599.3332">LessAversion,</text><text fill="#000000" font-family="sans-serif" font-size="14" lengthAdjust="spacing" textLength="91.7793" x="356.47" y="615.6301">LessDelusion</text><line style="stroke:#181818;stroke-width:0.5;" x1="337.47" x2="584.5335" y1="622.9319" y2="622.9319"/></g><!--link Person to Mind--><g class="link" data-entity-1="Person" data-entity-2="Mind" data-source-line="64" data-uid="lnk10" id="link_Person_Mind"><path codeLine="64" d="M1479.73,169.56 C1467.13,230.34 1442.32,328.97 1402,406.26 C1391.13,427.1 1376.63,447.86 1362.05,466.36" fill="none" id="Person-Mind" style="stroke:#181818;stroke-width:1;"/><polygon fill="#000000" points="1448.1571,331.8344,1454.223,324.5093,1448.7589,322.3429,1448.1571,331.8344" style="stroke:#000000;stroke-width:1;"/><text fill="#000000" font-family="sans-serif" font-size="13" lengthAdjust="spacing" textLength="22.9785" x="1459" y="331.6869">has</text><text fill="#000000" font-family="sans-serif" font-size="13" lengthAdjust="spacing" textLength="8.271" x="1470.0957" y="189.1012">1</text><text fill="#000000" font-family="sans-serif" font-size="13" lengthAdjust="spacing" textLength="8.271" x="1369.4719" y="454.7932">1</text></g><!--link Person to Attention--><g class="link" data-entity-1="Person" data-entity-2="Attention" data-source-line="65" data-uid="lnk11" id="link_Person_Attention"><path codeLine="65" d="M1440.86,169.42 C1421.8,187.73 1398.63,206.33 1374,217.97 C1272.77,265.79 966.36,299.32 788.22,315.36" fill="none" id="Person-Attention" style="stroke:#181818;stroke-width:1;"/><polygon fill="#000000" points="1275.1205,257.6275,1284.5889,258.5218,1283.3062,252.7856,1275.1205,257.6275" style="stroke:#000000;stroke-width:1;"/><text fill="#000000" font-family="sans-serif" font-size="13" lengthAdjust="spacing" textLength="29.7832" x="1289" y="261.0369">uses</text><text fill="#000000" font-family="sans-serif" font-size="13" lengthAdjust="spacing" textLength="8.271" x="1426.7314" y="188.945">1</text><text fill="#000000" font-family="sans-serif" font-size="13" lengthAdjust="spacing" textLength="8.271" x="796.103" y="311.3174">1</text></g><!--link Attention to Idea--><g class="link" data-entity-1="Attention" data-entity-2="Idea" data-source-line="66" data-uid="lnk12" id="link_Attention_Idea"><path codeLine="66" d="M788.5,358.4 C818.75,366.96 850.4,377.28 879,389.26 C917.39,405.35 924.94,413.83 960,436.26 C987.8,454.05 1017.88,475.01 1042.75,492.82" fill="none" id="Attention-Idea" style="stroke:#181818;stroke-width:1;"/><polygon fill="#000000" points="921.4203,400.1634,914.7976,393.3376,912.0503,398.5339,921.4203,400.1634" style="stroke:#000000;stroke-width:1;"/><text fill="#000000" font-family="sans-serif" font-size="13" lengthAdjust="spacing" textLength="65.0127" x="926" y="402.3269">processes</text><text fill="#000000" font-family="sans-serif" font-size="13" lengthAdjust="spacing" textLength="8.271" x="795.9722" y="356.7711">1</text><text fill="#000000" font-family="sans-serif" font-size="13" lengthAdjust="spacing" textLength="36.5625" x="995.2796" y="482.2034">many</text></g><!--link Mind to Effluent--><g class="link" data-entity-1="Mind" data-entity-2="Effluent" data-source-line="67" data-uid="lnk13" id="link_Mind_Effluent"><path codeLine="67" d="M1242.23,618.15 C1236.78,622.91 1231.03,627.25 1225,630.94 C1108.35,702.3 955.6,730.69 837.74,741.61" fill="none" id="Mind-Effluent" style="stroke:#181818;stroke-width:1;"/><polygon fill="#000000" points="1155.2178,670.966,1164.7268,671.1364,1163.0109,665.5146,1155.2178,670.966" style="stroke:#000000;stroke-width:1;"/><text fill="#000000" font-family="sans-serif" font-size="13" lengthAdjust="spacing" textLength="88.207" x="1169" y="674.0069">is affected by</text><text fill="#000000" font-family="sans-serif" font-size="13" lengthAdjust="spacing" textLength="8.271" x="1226.0773" y="625.098">1</text><text fill="#000000" font-family="sans-serif" font-size="13" lengthAdjust="spacing" textLength="36.5625" x="845.5532" y="738.1277">many</text></g><!--link Mind to View--><g class="link" data-entity-1="Mind" data-entity-2="View" data-source-line="68" data-uid="lnk14" id="link_Mind_View"><path codeLine="68" d="M1302,631.27 C1302,658.15 1302,685.86 1302,707.45" fill="none" id="Mind-View" style="stroke:#181818;stroke-width:1;"/><polygon fill="#000000" points="1307,674.5064,1309.9389,665.4613,1304.0611,665.4613,1307,674.5064" style="stroke:#000000;stroke-width:1;"/><text fill="#000000" font-family="sans-serif" font-size="13" lengthAdjust="spacing" textLength="73.6899" x="1316" y="674.0069">affected by</text><text fill="#000000" font-family="sans-serif" font-size="13" lengthAdjust="spacing" textLength="8.271" x="1293.7165" y="651.0655">1</text><text fill="#000000" font-family="sans-serif" font-size="13" lengthAdjust="spacing" textLength="36.5625" x="1263.1753" y="696.8318">many</text></g><!--link Attention to Effluent--><g class="link" data-entity-1="Attention" data-entity-2="Effluent" data-source-line="70" data-uid="lnk15" id="link_Attention_Effluent"><path codeLine="70" d="M523.51,337.71 C392.95,350.42 207.3,378.38 167,436.26 C117.57,507.27 113.36,563.05 167,630.94 C205.38,679.51 345.4702,709.1119 468.0402,726.6119" fill="none" id="Attention-to-Effluent" style="stroke:#181818;stroke-width:1;"/><polygon fill="#181818" points="473.98,727.46,465.6357,722.2281,469.0302,726.7533,464.505,730.1478,473.98,727.46" style="stroke:#181818;stroke-width:1;"/><text fill="#000000" font-family="sans-serif" font-size="13" lengthAdjust="spacing" textLength="150.3252" x="168" y="538.1669">causes (arise/increase)</text><text fill="#000000" font-family="sans-serif" font-size="13" lengthAdjust="spacing" textLength="88.1118" x="428.0667" y="334.9101">Inappropriate</text></g><!--link Attention to Effluent--><g class="link" data-entity-1="Attention" data-entity-2="Effluent" data-source-line="82" data-uid="lnk25" id="link_Attention_Effluent"><path codeLine="82" d="M656,359.62 C656,434.81 656,618.69 656,701.54" fill="none" id="Attention-to-Effluent-1" style="stroke:#181818;stroke-width:1;"/><polygon fill="#181818" points="656,707.54,660,698.54,656,702.54,652,698.54,656,707.54" style="stroke:#181818;stroke-width:1;"/><text fill="#000000" font-family="sans-serif" font-size="13" lengthAdjust="spacing" textLength="132.2915" x="657" y="538.1669">causes (abandoned)</text><text fill="#000000" font-family="sans-serif" font-size="13" lengthAdjust="spacing" textLength="76.9653" x="572.8482" y="379.3249">Appropriate</text></g><!--link Attention to View--><g class="link" data-entity-1="Attention" data-entity-2="View" data-source-line="71" data-uid="lnk16" id="link_Attention_View"><path codeLine="71" d="M710.67,359.69 C739.79,378.77 774.38,405.37 798,436.26 C854.71,510.44 807.19,568.93 877,630.94 C968.52,712.21 1105.6683,736.8515 1200.1583,744.2515" fill="none" id="Attention-to-View" style="stroke:#181818;stroke-width:1;"/><polygon fill="#181818" points="1206.14,744.72,1197.4798,740.0295,1201.1553,744.3296,1196.8552,748.0051,1206.14,744.72" style="stroke:#181818;stroke-width:1;"/><text fill="#000000" font-family="sans-serif" font-size="13" lengthAdjust="spacing" textLength="90.8667" x="878" y="538.1669">causes (arise)</text><text fill="#000000" font-family="sans-serif" font-size="13" lengthAdjust="spacing" textLength="88.1118" x="729.4895" y="379.4082">Inappropriate</text></g><!--link View to Person--><g class="link" data-entity-1="View" data-entity-2="Person" data-source-line="72" data-uid="lnk17" id="link_View_Person"><path codeLine="72" d="M1369.25,707.71 C1380.03,699.01 1390.19,689.03 1398,677.94 C1508.73,520.62 1505.4948,290.0728 1496.9148,181.4328" fill="none" id="View-to-Person" style="stroke:#181818;stroke-width:1;"/><polygon fill="none" points="1495.97,169.47,1492.4548,175.7663,1496.9148,181.4328,1500.43,175.1365,1495.97,169.47" style="stroke:#181818;stroke-width:1;"/><polygon fill="#000000" points="1499.1787,392.9673,1494.1903,401.0646,1499.9025,402.4503,1499.1787,392.9673" style="stroke:#000000;stroke-width:1;"/><text fill="#000000" font-family="sans-serif" font-size="13" lengthAdjust="spacing" textLength="42.8848" x="1507" y="402.3269">fetters</text><text fill="#000000" font-family="sans-serif" font-size="13" lengthAdjust="spacing" textLength="52.3618" x="1324.1112" y="696.8334">fettered</text></g><!--link Attention to Outcome--><g class="link" data-entity-1="Attention" data-entity-2="Outcome" data-source-line="73" data-uid="lnk18" id="link_Attention_Outcome"><path codeLine="73" d="M523.67,333.88 C436.33,340.78 333.02,355.95 305,389.26 C294.29,402 306.1549,419.6758 331.7849,442.3358" fill="none" id="Attention-to-Outcome" style="stroke:#181818;stroke-width:1;"/><polygon fill="#181818" points="336.28,446.31,332.1868,437.352,332.5341,442.9982,326.8879,443.3454,336.28,446.31" style="stroke:#181818;stroke-width:1;"/><polygon fill="#000000" points="305.6472,400.2867,314.9676,398.3945,312.0754,393.2775,305.6472,400.2867" style="stroke:#000000;stroke-width:1;"/><text fill="#000000" font-family="sans-serif" font-size="13" lengthAdjust="spacing" textLength="130.9521" x="319" y="402.3269">results in (negative)</text><text fill="#000000" font-family="sans-serif" font-size="13" lengthAdjust="spacing" textLength="88.1118" x="427.6826" y="346.5961">Inappropriate</text></g><!--link Attention to Outcome--><g class="link" data-entity-1="Attention" data-entity-2="Outcome" data-source-line="83" data-uid="lnk26" id="link_Attention_Outcome"><path codeLine="83" d="M527.57,359.62 C513.42,367.42 500.4,377.14 490,389.26 C478.68,402.47 472.9346,413.0858 468.2646,430.0258" fill="none" id="Attention-to-Outcome-1" style="stroke:#181818;stroke-width:1;"/><polygon fill="#181818" points="466.67,435.81,472.918,428.1967,467.9988,430.9898,465.2057,426.0706,466.67,435.81" style="stroke:#181818;stroke-width:1;"/><polygon fill="#000000" points="491.7788,401.6505,499.8538,396.626,495.3582,392.8393,491.7788,401.6505" style="stroke:#000000;stroke-width:1;"/><text fill="#000000" font-family="sans-serif" font-size="13" lengthAdjust="spacing" textLength="125.0869" x="504" y="402.3269">results in (positive)</text><text fill="#000000" font-family="sans-serif" font-size="13" lengthAdjust="spacing" textLength="76.9653" x="438.8646" y="374.7546">Appropriate</text></g><!--link Condition to Attention--><g class="link" data-entity-1="Condition" data-entity-2="Attention" data-source-line="75" data-uid="lnk19" id="link_Condition_Attention"><path codeLine="75" d="M436.63,133.04 C506.34,151.04 591.61,184.95 642,247.97 C652.42,260.99 655.7211,273.1726 656.7311,288.7226" fill="none" id="Condition-to-Attention" style="stroke:#181818;stroke-width:1;"/><polygon fill="#181818" points="657.12,294.71,660.5283,285.4697,656.7959,289.7205,652.5451,285.9882,657.12,294.71" style="stroke:#181818;stroke-width:1;"/><polygon fill="#000000" points="661.0821,259.4237,655.3947,251.8011,652.0004,256.5999,661.0821,259.4237" style="stroke:#000000;stroke-width:1;"/><text fill="#000000" font-family="sans-serif" font-size="13" lengthAdjust="spacing" textLength="153.9497" x="666" y="261.0369">leads to (inappropriate)</text><text fill="#000000" font-family="sans-serif" font-size="13" lengthAdjust="spacing" textLength="113.3184" x="444.3463" y="146.3812">LackOfConviction</text></g><!--link Condition to Attention--><g class="link" data-entity-1="Condition" data-entity-2="Attention" data-source-line="78" data-uid="lnk22" id="link_Condition_Attention"><path codeLine="78" d="M436.54,127.65 C570.37,146.95 780.63,186.33 828,247.97 C848.69,274.88 830.2334,290.9468 794.1134,302.7468" fill="none" id="Condition-to-Attention-1" style="stroke:#181818;stroke-width:1;"/><polygon fill="#181818" points="788.41,304.61,798.2072,305.6174,793.1628,303.0573,795.7229,298.0129,788.41,304.61" style="stroke:#181818;stroke-width:1;"/><polygon fill="#000000" points="844.4905,258.7353,837.6596,252.118,835.0746,257.3969,844.4905,258.7353" style="stroke:#000000;stroke-width:1;"/><text fill="#000000" font-family="sans-serif" font-size="13" lengthAdjust="spacing" textLength="155.6382" x="849" y="261.0369">sustains (inappropriate)</text><text fill="#000000" font-family="sans-serif" font-size="13" lengthAdjust="spacing" textLength="90.6826" x="444.2358" y="125.0914">MuddledTruth</text></g><!--link Condition to Attention--><g class="link" data-entity-1="Condition" data-entity-2="Attention" data-source-line="79" data-uid="lnk23" id="link_Condition_Attention"><path codeLine="79" d="M209.61,136.8 C115.74,161.04 6,204.02 61,264.97 C91.42,298.67 351.9352,314.6113 517.7852,321.4913" fill="none" id="Condition-to-Attention-2" style="stroke:#181818;stroke-width:1;"/><polygon fill="#181818" points="523.78,321.74,514.9535,317.3704,518.7843,321.5328,514.6219,325.3635,523.78,321.74" style="stroke:#181818;stroke-width:1;"/><polygon fill="#000000" points="70.2888,259.1067,64.0411,251.9361,61.0195,256.9779,70.2888,259.1067" style="stroke:#000000;stroke-width:1;"/><text fill="#000000" font-family="sans-serif" font-size="13" lengthAdjust="spacing" textLength="155.6382" x="75" y="261.0369">sustains (inappropriate)</text><text fill="#000000" font-family="sans-serif" font-size="13" lengthAdjust="spacing" textLength="77.5557" x="124.3187" y="134.7901">Unalertness</text></g><!--link Condition to Attention--><g class="link" data-entity-1="Condition" data-entity-2="Attention" data-source-line="80" data-uid="lnk24" id="link_Condition_Attention"><path codeLine="80" d="M259.63,218.46 C256.92,235.2 259.45,251.43 271,264.97 C303.3,302.8 419.4595,317.0131 517.6195,322.5331" fill="none" id="Condition-to-Attention-3" style="stroke:#181818;stroke-width:1;"/><polygon fill="#181818" points="523.61,322.87,514.8488,318.371,518.6179,322.5893,514.3996,326.3584,523.61,322.87" style="stroke:#181818;stroke-width:1;"/><polygon fill="#000000" points="280.6369,258.4069,273.3481,252.2976,271.1492,257.7486,280.6369,258.4069" style="stroke:#000000;stroke-width:1;"/><text fill="#000000" font-family="sans-serif" font-size="13" lengthAdjust="spacing" textLength="155.6382" x="285" y="261.0369">sustains (inappropriate)</text><text fill="#000000" font-family="sans-serif" font-size="13" lengthAdjust="spacing" textLength="133.7705" x="117.9303" y="238.1555">ScatteredAwareness</text></g><!--link Condition to Attention--><g class="link" data-entity-1="Condition" data-entity-2="Attention" data-source-line="86" data-uid="lnk28" id="link_Condition_Attention"><path codeLine="86" d="M416.77,218.46 C435.5,235.6 455.94,251.96 477,264.97 C496,276.7 511.9283,284.3866 533.3083,292.4766" fill="none" id="Condition-to-Attention-4" style="stroke:#181818;stroke-width:1;"/><polygon fill="#181818" points="538.92,294.6,531.9181,287.6737,534.2436,292.8305,529.0868,295.156,538.92,294.6" style="stroke:#181818;stroke-width:1;"/><polygon fill="#000000" points="486.2207,259.2171,480.1611,251.8869,477.0098,256.8486,486.2207,259.2171" style="stroke:#000000;stroke-width:1;"/><text fill="#000000" font-family="sans-serif" font-size="13" lengthAdjust="spacing" textLength="142.0986" x="491" y="261.0369">leads to (appropriate)</text><text fill="#000000" font-family="sans-serif" font-size="13" lengthAdjust="spacing" textLength="68.6245" x="352.8068" y="238.1555">Conviction</text></g><!--link Condition to Condition--><g class="link" data-entity-1="Condition" data-entity-2="Condition" data-source-line="76" data-uid="lnk20" id="link_Condition_Condition"><path codeLine="76" d="M436.75,106.13 C457.07,106.96 471.26,109.07 471.26,112.48 C471.26,115.89 463.065,117.7651 442.745,118.5951" fill="none" id="Condition-to-Condition" style="stroke:#181818;stroke-width:1;"/><polygon fill="#181818" points="436.75,118.84,445.9058,122.4694,441.7458,118.6359,445.5793,114.476,436.75,118.84" style="stroke:#181818;stroke-width:1;"/><polygon fill="#000000" points="476.4641,117.5422,479.0314,108.3847,473.1584,108.6246,476.4641,117.5422" style="stroke:#000000;stroke-width:1;"/><text fill="#000000" font-family="sans-serif" font-size="13" lengthAdjust="spacing" textLength="179.3784" x="490.26" y="117.0469">leads to (LackOfConviction)</text><text fill="#000000" font-family="sans-serif" font-size="13" lengthAdjust="spacing" textLength="162.9951" x="444.3769" y="102.6583">NotHearingTrueDhamma</text></g><!--link Condition to Condition--><g class="link" data-entity-1="Condition" data-entity-2="Condition" data-source-line="77" data-uid="lnk21" id="link_Condition_Condition"><path codeLine="77" d="M436.76,100.67 C541.9,96.37 675.26,100.3 675.26,112.48 C675.26,124.66 547.895,128.8458 442.755,124.5358" fill="none" id="Condition-to-Condition-1" style="stroke:#181818;stroke-width:1;"/><polygon fill="#181818" points="436.76,124.29,445.5886,128.6553,441.7558,124.4948,445.9163,120.662,436.76,124.29" style="stroke:#181818;stroke-width:1;"/><polygon fill="#000000" points="680.0557,117.5422,683.3618,108.6248,677.4888,108.3846,680.0557,117.5422" style="stroke:#000000;stroke-width:1;"/><text fill="#000000" font-family="sans-serif" font-size="13" lengthAdjust="spacing" textLength="229.0552" x="694.26" y="117.0469">leads to (NotHearingTrueDhamma)</text><text fill="#000000" font-family="sans-serif" font-size="13" lengthAdjust="spacing" textLength="182.0635" x="444.1197" y="97.0452">NotAssociatingWithIntegrity</text></g><!--link Condition to Condition--><g class="link" data-entity-1="Condition" data-entity-2="Condition" data-source-line="87" data-uid="lnk29" id="link_Condition_Condition"><path codeLine="87" d="M436.6,97.99 C615.73,86.96 929.26,91.79 929.26,112.48 C929.26,133.18 621.7186,138.3791 442.5886,127.3391" fill="none" id="Condition-to-Condition-2" style="stroke:#181818;stroke-width:1;"/><polygon fill="#181818" points="436.6,126.97,445.3369,131.5161,441.5905,127.2776,445.829,123.5312,436.6,126.97" style="stroke:#181818;stroke-width:1;"/><polygon fill="#000000" points="933.9527,117.537,937.442,108.6896,931.5752,108.3283,933.9527,117.537" style="stroke:#000000;stroke-width:1;"/><text fill="#000000" font-family="sans-serif" font-size="13" lengthAdjust="spacing" textLength="134.6846" x="948.26" y="117.0469">leads to (Conviction)</text><text fill="#000000" font-family="sans-serif" font-size="13" lengthAdjust="spacing" textLength="140.2197" x="440.8449" y="22.6946">HearingTrueDhamma</text></g><!--link Condition to Condition--><g class="link" data-entity-1="Condition" data-entity-2="Condition" data-source-line="88" data-uid="lnk30" id="link_Condition_Condition"><path codeLine="88" d="M436.36,95.1 C654.33,77.95 1088.26,83.75 1088.26,112.48 C1088.26,141.22 660.3115,147.4906 442.3415,130.3406" fill="none" id="Condition-to-Condition-3" style="stroke:#181818;stroke-width:1;"/><polygon fill="#181818" points="436.36,129.87,445.0185,134.5636,441.3446,130.2622,445.646,126.5883,436.36,129.87" style="stroke:#181818;stroke-width:1;"/><polygon fill="#000000" points="1092.8678,117.531,1096.5072,108.7443,1090.6474,108.2833,1092.8678,117.531" style="stroke:#000000;stroke-width:1;"/><text fill="#000000" font-family="sans-serif" font-size="13" lengthAdjust="spacing" textLength="206.2798" x="1107.26" y="117.0469">leads to (HearingTrueDhamma)</text><text fill="#000000" font-family="sans-serif" font-size="13" lengthAdjust="spacing" textLength="159.2881" x="444.5024" y="91.1199">AssociatingWithIntegrity</text></g><!--link Attention to Mind--><g class="link" data-entity-1="Attention" data-entity-2="Mind" data-source-line="84" data-uid="lnk27" id="link_Attention_Mind"><path codeLine="84" d="M788.28,343.36 C852.81,352.89 931,367.57 999,389.26 C1015.86,394.64 1018.09,401.05 1035,406.26 C1116.7,431.44 1151.09,393.3 1225,436.26 C1231.11,439.82 1232.3545,440.1569 1237.8545,444.8469" fill="none" id="Attention-to-Mind" style="stroke:#181818;stroke-width:1;"/><polygon fill="#181818" points="1242.42,448.74,1238.1672,439.8567,1238.6154,445.4957,1232.9764,445.944,1242.42,448.74" style="stroke:#181818;stroke-width:1;"/><polygon fill="#000000" points="1044.8773,398.9274,1036.7014,394.0689,1035.4071,399.8025,1044.8773,398.9274" style="stroke:#000000;stroke-width:1;"/><text fill="#000000" font-family="sans-serif" font-size="13" lengthAdjust="spacing" textLength="348.5752" x="1049" y="402.3269">cultivates (pliant, malleable, luminous, concentrated)</text><text fill="#000000" font-family="sans-serif" font-size="13" lengthAdjust="spacing" textLength="76.9653" x="796.0177" y="340.826">Appropriate</text></g><!--SRC=[dLLDRzim3BtdLmWv9PYBOLSV2cJhW0Lhrs9jjsEWo7GYJA42VQG8XlttqR9bouuJjCqbDaazFahloK9nQza36AkH_Pqm-drWXRG23Eu0NHFPIInMrd47JO0x1nIIoFTxe_T6KaeTP_D-UfZyDvc8qF2EyDfsrYibeMZUbATcsjl81KgfscHfe7tUAyaxWbmfu6iL-QsDTAvz4ne53ME8HrnjHSNHq7jBQb6HTZBP27VSGyvcotJAZ2swbsIaPG6yNLXAjogrMV48cRErriGGcmAF5qfQpAzbgJnbXuGU0QtdIhfZnZw3qBHZcumjDwWDfqdZAOG3etAFt4WBcB7sVysnq0X5nYGA0zmIGZBCBmalfqrLIKCILtUiyiCk4Rk4UcCJk2yQ2tcoiomyttBnvxwaYeCKLKbMXtzezmq84ZTFniFDbkzsl4ijhDM23e3IlwNRBj71neJj21LtlYX8DBJIRPlGCt85nY5OsqGUem8MBzn0aZZXSex8EHRTuFVUqUb0R-pmI99Qo-e0d_Gp5cG_HmVI0t_qPGac76nulm6X94BaI48ntr6_T0K_WM8s5jpIF0z4ePkYYYmErAeVkW7bgr15kha7ff-cxEeg_0MZvcpBBRiUINUMoPctK1LreLYtutYSrlx86Lb7KDTG6i3xLQtYSoOjuxG5WZpBriVnyg3JV52NKkXPjrfvdROGF92kfVknSGBPvp90qxItU3u9qMaKVrMfuxsQDvuORCy8TDHBpWpGjUWisPFD43OaiWFCg-4wBqs7rganqZCXHHIMESrclPkw0afmnhnMOtL5ATQmxodSEMTSGXrZCK1EVNqwhFNa8edsyh39HV1UYDERuqr8gGOMhr5dlApd5rUEQsUlhOpQkRIwCRgWXV90KUfRVs2pxjkQjH_dhFT97UhoTOeylxzl4kDP6Rv7WsC2_0y0]--></g></svg>