<svg xmlns="http://www.w3.org/2000/svg" xmlns:xlink="http://www.w3.org/1999/xlink" contentStyleType="text/css" data-diagram-type="SEQUENCE" height="1303px" preserveAspectRatio="none" style="width:873px;height:1303px;background:#FFFFFF;" version="1.1" viewBox="0 0 873 1303" width="873px" zoomAndPan="magnify"><defs/><g><line style="stroke:#181818;stroke-width:1;" x1="165.8336" x2="165.8336" y1="544.2461" y2="598.9521"/><polygon fill="#181818" points="161.8336,554.2461,165.8336,544.2461,169.8336,554.2461,165.8336,550.2461" style="stroke:#181818;stroke-width:1;"/><polygon fill="#181818" points="161.8336,588.9521,165.8336,598.9521,169.8336,588.9521,165.8336,592.9521" style="stroke:#181818;stroke-width:1;"/><text fill="#000000" font-family="sans-serif" font-size="13" lengthAdjust="spacing" textLength="109.1741" x="169.8336" y="558.9371">some time passes</text><text fill="#000000" font-family="sans-serif" font-size="13" lengthAdjust="spacing" textLength="80.1191" x="184.3611" y="576.6431">&amp; hr starts to</text><text fill="#000000" font-family="sans-serif" font-size="13" lengthAdjust="spacing" textLength="108.9791" x="169.931" y="594.3492">miss renunciation</text><g><title>citta</title><rect fill="#000000" fill-opacity="0.00000" height="1225.1805" width="8" x="41.6469" y="39.0679"/><line style="stroke:#181818;stroke-width:0.5;stroke-dasharray:5,5;" x1="45.1469" x2="45.1469" y1="39.0679" y2="1264.2484"/></g><g><title>cittasMind</title><rect fill="#000000" fill-opacity="0.00000" height="1225.1805" width="8" x="283.0202" y="39.0679"/><line style="stroke:#181818;stroke-width:0.5;stroke-dasharray:5,5;" x1="286.5202" x2="286.5202" y1="39.0679" y2="1264.2484"/></g><g><title>training</title><rect fill="#000000" fill-opacity="0.00000" height="1225.1805" width="8" x="564.7034" y="39.0679"/><line style="stroke:#181818;stroke-width:0.5;stroke-dasharray:5,5;" x1="568.2034" x2="568.2034" y1="39.0679" y2="1264.2484"/></g><g><title>other people</title><rect fill="#000000" fill-opacity="0.00000" height="1225.1805" width="8" x="788.6796" y="39.0679"/><line style="stroke:#181818;stroke-width:0.5;stroke-dasharray:5,5;" x1="792.1796" x2="792.1796" y1="39.0679" y2="1264.2484"/></g><rect fill="#E2E2F0" height="33.0679" rx="2.5" ry="2.5" style="stroke:#181818;stroke-width:0.5;" width="42.2939" x="24" y="5"/><text fill="#000000" font-family="sans-serif" font-size="14" lengthAdjust="spacing" textLength="28.2939" x="31" y="26.9659">citta</text><rect fill="#E2E2F0" height="33.0679" rx="2.5" ry="2.5" style="stroke:#181818;stroke-width:0.5;" width="82.5717" x="245.2343" y="5"/><text fill="#000000" font-family="sans-serif" font-size="14" lengthAdjust="spacing" textLength="68.5717" x="252.2343" y="26.9659">cittasMind</text><rect fill="#E2E2F0" height="33.0679" rx="2.5" ry="2.5" style="stroke:#181818;stroke-width:0.5;" width="65.8278" x="535.2895" y="5"/><text fill="#000000" font-family="sans-serif" font-size="14" lengthAdjust="spacing" textLength="51.8278" x="542.2895" y="26.9659">training</text><rect fill="#E2E2F0" height="33.0679" rx="2.5" ry="2.5" style="stroke:#181818;stroke-width:0.5;" width="98.5877" x="742.8858" y="5"/><text fill="#000000" font-family="sans-serif" font-size="14" lengthAdjust="spacing" textLength="84.5877" x="749.8858" y="26.9659">other people</text><rect fill="#E2E2F0" height="33.0679" rx="2.5" ry="2.5" style="stroke:#181818;stroke-width:0.5;" width="42.2939" x="24" y="1264.2484"/><text fill="#000000" font-family="sans-serif" font-size="14" lengthAdjust="spacing" textLength="28.2939" x="31" y="1286.2143">citta</text><rect fill="#E2E2F0" height="33.0679" rx="2.5" ry="2.5" style="stroke:#181818;stroke-width:0.5;" width="82.5717" x="245.2343" y="1264.2484"/><text fill="#000000" font-family="sans-serif" font-size="14" lengthAdjust="spacing" textLength="68.5717" x="252.2343" y="1286.2143">cittasMind</text><rect fill="#E2E2F0" height="33.0679" rx="2.5" ry="2.5" style="stroke:#181818;stroke-width:0.5;" width="65.8278" x="535.2895" y="1264.2484"/><text fill="#000000" font-family="sans-serif" font-size="14" lengthAdjust="spacing" textLength="51.8278" x="542.2895" y="1286.2143">training</text><rect fill="#E2E2F0" height="33.0679" rx="2.5" ry="2.5" style="stroke:#181818;stroke-width:0.5;" width="98.5877" x="742.8858" y="1264.2484"/><text fill="#000000" font-family="sans-serif" font-size="14" lengthAdjust="spacing" textLength="84.5877" x="749.8858" y="1286.2143">other people</text><rect fill="#EEEEEE" height="3" style="stroke:#EEEEEE;stroke-width:1;" width="861.4735" x="5" y="68.9209"/><line style="stroke:#000000;stroke-width:1;" x1="5" x2="866.4735" y1="68.9209" y2="68.9209"/><line style="stroke:#000000;stroke-width:1;" x1="5" x2="866.4735" y1="71.9209" y2="71.9209"/><rect fill="#EEEEEE" height="25.706" style="stroke:#000000;stroke-width:2;" width="140.0741" x="365.6997" y="57.0679"/><text fill="#000000" font-family="sans-serif" font-size="13" font-weight="bold" lengthAdjust="spacing" textLength="122.6941" x="371.6997" y="74.9649">1st time as a monk</text><polygon fill="#FEFFDD" points="24.9266,97.7739,811.9266,97.7739,821.9266,109.7739,811.9266,122.7739,24.9266,122.7739,14.9266,109.7739,24.9266,97.7739" style="stroke:#181818;stroke-width:0.5;"/><text fill="#000000" font-family="sans-serif" font-size="13" lengthAdjust="spacing" textLength="272.8963" x="282.2152" y="115.6709">greed = true, aversion = true, delusion = true</text><path d="M29.1469,132.4799 L353.3741,132.4799 L353.3741,142.186 L343.3741,152.186 L29.1469,152.186 L29.1469,132.4799" fill="#EEEEEE" style="stroke:#000000;stroke-width:1.5;"/><rect fill="none" height="150.8241" style="stroke:#000000;stroke-width:1.5;" width="429.2814" x="29.1469" y="132.4799"/><text fill="#000000" font-family="sans-serif" font-size="13" font-weight="bold" lengthAdjust="spacing" textLength="279.2271" x="44.1469" y="147.377">is able to maintain heightened mind states</text><polygon fill="#181818" points="274.5202,181.892,284.5202,185.892,274.5202,189.892,278.5202,185.892" style="stroke:#181818;stroke-width:1;"/><line style="stroke:#181818;stroke-width:1;" x1="45.1469" x2="280.5202" y1="185.892" y2="185.892"/><text fill="#000000" font-family="sans-serif" font-size="13" lengthAdjust="spacing" textLength="217.3732" x="52.1469" y="180.083">enter and remain in concentration()</text><line style="stroke:#181818;stroke-width:1;" x1="286.5202" x2="328.5202" y1="217.598" y2="217.598"/><line style="stroke:#181818;stroke-width:1;" x1="328.5202" x2="328.5202" y1="217.598" y2="230.598"/><line style="stroke:#181818;stroke-width:1;" x1="287.5202" x2="328.5202" y1="230.598" y2="230.598"/><polygon fill="#181818" points="297.5202,226.598,287.5202,230.598,297.5202,234.598,293.5202,230.598" style="stroke:#181818;stroke-width:1;"/><text fill="#000000" font-family="sans-serif" font-size="13" lengthAdjust="spacing" textLength="141.9081" x="293.5202" y="211.789">enter first... forth jhana</text><line style="stroke:#181818;stroke-width:1;" x1="286.5202" x2="328.5202" y1="262.304" y2="262.304"/><line style="stroke:#181818;stroke-width:1;" x1="328.5202" x2="328.5202" y1="262.304" y2="275.304"/><line style="stroke:#181818;stroke-width:1;" x1="287.5202" x2="328.5202" y1="275.304" y2="275.304"/><polygon fill="#181818" points="297.5202,271.304,287.5202,275.304,297.5202,279.304,293.5202,275.304" style="stroke:#181818;stroke-width:1;"/><text fill="#000000" font-family="sans-serif" font-size="13" lengthAdjust="spacing" textLength="136.2141" x="293.5202" y="256.495">enter themeless jhana</text><path d="M29.1469,301.304 L414.4481,301.304 L414.4481,311.01 L404.4481,321.01 L29.1469,321.01 L29.1469,301.304" fill="#EEEEEE" style="stroke:#000000;stroke-width:1.5;"/><rect fill="none" height="169.5301" style="stroke:#000000;stroke-width:1.5;" width="779.0327" x="29.1469" y="301.304"/><text fill="#000000" font-family="sans-serif" font-size="13" font-weight="bold" lengthAdjust="spacing" textLength="340.3011" x="44.1469" y="316.201">but neglects seclusion &amp; solitude, abandons training</text><polygon fill="#181818" points="780.1796,350.716,790.1796,354.716,780.1796,358.716,784.1796,354.716" style="stroke:#181818;stroke-width:1;"/><line style="stroke:#181818;stroke-width:1;" x1="45.1469" x2="786.1796" y1="354.716" y2="354.716"/><text fill="#000000" font-family="sans-serif" font-size="13" lengthAdjust="spacing" textLength="91.6891" x="52.1469" y="348.907">gets entangled</text><polygon fill="#181818" points="297.5202,382.4221,287.5202,386.4221,297.5202,390.4221,293.5202,386.4221" style="stroke:#181818;stroke-width:1;"/><line style="stroke:#181818;stroke-width:1;" x1="291.5202" x2="791.1796" y1="386.4221" y2="386.4221"/><text fill="#000000" font-family="sans-serif" font-size="13" lengthAdjust="spacing" textLength="167.9341" x="303.5202" y="380.6131">arouse sensual desire/lust()</text><line style="stroke:#181818;stroke-width:1;" x1="286.5202" x2="328.5202" y1="418.1281" y2="418.1281"/><line style="stroke:#181818;stroke-width:1;" x1="328.5202" x2="328.5202" y1="418.1281" y2="431.1281"/><line style="stroke:#181818;stroke-width:1;" x1="287.5202" x2="328.5202" y1="431.1281" y2="431.1281"/><polygon fill="#181818" points="297.5202,427.1281,287.5202,431.1281,297.5202,435.1281,293.5202,431.1281" style="stroke:#181818;stroke-width:1;"/><text fill="#000000" font-family="sans-serif" font-size="13" lengthAdjust="spacing" textLength="267.6833" x="293.5202" y="412.3191">has sense of shame &amp; compunction() = false</text><polygon fill="#181818" points="556.2034,458.8341,566.2034,462.8341,556.2034,466.8341,560.2034,462.8341" style="stroke:#181818;stroke-width:1;"/><line style="stroke:#181818;stroke-width:1;" x1="45.1469" x2="562.2034" y1="462.8341" y2="462.8341"/><text fill="#000000" font-family="sans-serif" font-size="13" lengthAdjust="spacing" textLength="62.3091" x="52.1469" y="457.0251">abandon()</text><path d="M29.1469,488.8341 L302.1671,488.8341 L302.1671,498.5401 L292.1671,508.5401 L29.1469,508.5401 L29.1469,488.8341" fill="#EEEEEE" style="stroke:#000000;stroke-width:1.5;"/><rect fill="none" height="164.8241" style="stroke:#000000;stroke-width:1.5;" width="532.7614" x="29.1469" y="488.8341"/><text fill="#000000" font-family="sans-serif" font-size="13" font-weight="bold" lengthAdjust="spacing" textLength="228.0202" x="44.1469" y="503.7311">and reverts to being a householder</text><polygon fill="#181818" points="274.5202,538.2461,284.5202,542.2461,274.5202,546.2461,278.5202,542.2461" style="stroke:#181818;stroke-width:1;"/><line style="stroke:#181818;stroke-width:1;" x1="45.1469" x2="280.5202" y1="542.2461" y2="542.2461"/><text fill="#000000" font-family="sans-serif" font-size="13" lengthAdjust="spacing" textLength="133.2242" x="52.1469" y="536.4371">indulge in sensuality()</text><line style="stroke:#181818;stroke-width:1;" x1="286.5202" x2="328.5202" y1="573.9521" y2="573.9521"/><line style="stroke:#181818;stroke-width:1;" x1="328.5202" x2="328.5202" y1="573.9521" y2="586.9521"/><line style="stroke:#181818;stroke-width:1;" x1="287.5202" x2="328.5202" y1="586.9521" y2="586.9521"/><polygon fill="#181818" points="297.5202,582.9521,287.5202,586.9521,297.5202,590.9521,293.5202,586.9521" style="stroke:#181818;stroke-width:1;"/><text fill="#000000" font-family="sans-serif" font-size="13" lengthAdjust="spacing" textLength="245.3882" x="293.5202" y="568.1431">is inclined towards renunciation() = false</text><polygon fill="#181818" points="56.1469,596.9521,46.1469,600.9521,56.1469,604.9521,52.1469,600.9521" style="stroke:#181818;stroke-width:1;"/><line style="stroke:#181818;stroke-width:1;stroke-dasharray:2,2;" x1="50.1469" x2="285.5202" y1="600.9521" y2="600.9521"/><line style="stroke:#181818;stroke-width:1;" x1="286.5202" x2="328.5202" y1="632.6582" y2="632.6582"/><line style="stroke:#181818;stroke-width:1;" x1="328.5202" x2="328.5202" y1="632.6582" y2="645.6582"/><line style="stroke:#181818;stroke-width:1;" x1="287.5202" x2="328.5202" y1="645.6582" y2="645.6582"/><polygon fill="#181818" points="297.5202,641.6582,287.5202,645.6582,297.5202,649.6582,293.5202,645.6582" style="stroke:#181818;stroke-width:1;"/><text fill="#000000" font-family="sans-serif" font-size="13" lengthAdjust="spacing" textLength="242.1382" x="293.5202" y="626.8492">is inclined towards renunciation() = true</text><rect fill="#EEEEEE" height="3" style="stroke:#EEEEEE;stroke-width:1;" width="861.4735" x="5" y="689.5112"/><line style="stroke:#000000;stroke-width:1;" x1="5" x2="866.4735" y1="689.5112" y2="689.5112"/><line style="stroke:#000000;stroke-width:1;" x1="5" x2="866.4735" y1="692.5112" y2="692.5112"/><rect fill="#EEEEEE" height="25.706" style="stroke:#000000;stroke-width:2;" width="144.7411" x="363.3662" y="677.6582"/><text fill="#000000" font-family="sans-serif" font-size="13" font-weight="bold" lengthAdjust="spacing" textLength="127.3611" x="369.3662" y="695.5552">2nd time as a monk</text><path d="M8,717.3642 L378.7802,717.3642 L378.7802,727.0702 L368.7802,737.0702 L8,737.0702 L8,717.3642" fill="#EEEEEE" style="stroke:#000000;stroke-width:1.5;"/><rect fill="none" height="522.8842" style="stroke:#000000;stroke-width:1.5;" width="849.4735" x="8" y="717.3642"/><text fill="#000000" font-family="sans-serif" font-size="13" font-weight="bold" lengthAdjust="spacing" textLength="325.7802" x="23" y="732.2612">now dwelling secluded, heedful, ardent &amp; resolute</text><polygon fill="#181818" points="556.2034,766.7762,566.2034,770.7762,556.2034,774.7762,560.2034,770.7762" style="stroke:#181818;stroke-width:1;"/><line style="stroke:#181818;stroke-width:1;" x1="45.1469" x2="562.2034" y1="770.7762" y2="770.7762"/><text fill="#000000" font-family="sans-serif" font-size="13" lengthAdjust="spacing" textLength="54.2491" x="52.1469" y="764.9672">resume()</text><line style="stroke:#181818;stroke-width:1;" x1="568.2034" x2="610.2034" y1="802.4822" y2="802.4822"/><line style="stroke:#181818;stroke-width:1;" x1="610.2034" x2="610.2034" y1="802.4822" y2="815.4822"/><line style="stroke:#181818;stroke-width:1;" x1="569.2034" x2="610.2034" y1="815.4822" y2="815.4822"/><polygon fill="#181818" points="579.2034,811.4822,569.2034,815.4822,579.2034,819.4822,575.2034,815.4822" style="stroke:#181818;stroke-width:1;"/><text fill="#000000" font-family="sans-serif" font-size="13" lengthAdjust="spacing" textLength="64.4671" x="575.2034" y="796.6732">seclusion()</text><line style="stroke:#181818;stroke-width:1;" x1="568.2034" x2="610.2034" y1="847.1882" y2="847.1882"/><line style="stroke:#181818;stroke-width:1;" x1="610.2034" x2="610.2034" y1="847.1882" y2="860.1882"/><line style="stroke:#181818;stroke-width:1;" x1="569.2034" x2="610.2034" y1="860.1882" y2="860.1882"/><polygon fill="#181818" points="579.2034,856.1882,569.2034,860.1882,579.2034,864.1882,575.2034,860.1882" style="stroke:#181818;stroke-width:1;"/><text fill="#000000" font-family="sans-serif" font-size="13" lengthAdjust="spacing" textLength="56.6541" x="575.2034" y="841.3792">solitude()</text><line style="stroke:#181818;stroke-width:1;" x1="568.2034" x2="610.2034" y1="891.8943" y2="891.8943"/><line style="stroke:#181818;stroke-width:1;" x1="610.2034" x2="610.2034" y1="891.8943" y2="904.8943"/><line style="stroke:#181818;stroke-width:1;" x1="569.2034" x2="610.2034" y1="904.8943" y2="904.8943"/><polygon fill="#181818" points="579.2034,900.8943,569.2034,904.8943,579.2034,908.8943,575.2034,904.8943" style="stroke:#181818;stroke-width:1;"/><text fill="#000000" font-family="sans-serif" font-size="13" lengthAdjust="spacing" textLength="60.1641" x="575.2034" y="886.0853">restraint()</text><line style="stroke:#181818;stroke-width:1;" x1="568.2034" x2="610.2034" y1="936.6003" y2="936.6003"/><line style="stroke:#181818;stroke-width:1;" x1="610.2034" x2="610.2034" y1="936.6003" y2="949.6003"/><line style="stroke:#181818;stroke-width:1;" x1="569.2034" x2="610.2034" y1="949.6003" y2="949.6003"/><polygon fill="#181818" points="579.2034,945.6003,569.2034,949.6003,579.2034,953.6003,575.2034,949.6003" style="stroke:#181818;stroke-width:1;"/><text fill="#000000" font-family="sans-serif" font-size="13" lengthAdjust="spacing" textLength="75.9851" x="575.2034" y="930.7913">self control()</text><polygon fill="#181818" points="556.2034,977.3063,566.2034,981.3063,556.2034,985.3063,560.2034,981.3063" style="stroke:#181818;stroke-width:1;"/><line style="stroke:#181818;stroke-width:1;" x1="45.1469" x2="562.2034" y1="981.3063" y2="981.3063"/><text fill="#000000" font-family="sans-serif" font-size="13" lengthAdjust="spacing" textLength="78.7411" x="52.1469" y="975.4973">exerts(100%)</text><line style="stroke:#181818;stroke-width:1;" x1="568.2034" x2="610.2034" y1="1013.0123" y2="1013.0123"/><line style="stroke:#181818;stroke-width:1;" x1="610.2034" x2="610.2034" y1="1013.0123" y2="1026.0123"/><line style="stroke:#181818;stroke-width:1;" x1="569.2034" x2="610.2034" y1="1026.0123" y2="1026.0123"/><polygon fill="#181818" points="579.2034,1022.0123,569.2034,1026.0123,579.2034,1030.0123,575.2034,1026.0123" style="stroke:#181818;stroke-width:1;"/><text fill="#000000" font-family="sans-serif" font-size="13" lengthAdjust="spacing" textLength="168.5972" x="575.2034" y="1007.2033">practice heightened virtue()</text><line style="stroke:#181818;stroke-width:1;" x1="568.2034" x2="610.2034" y1="1057.7183" y2="1057.7183"/><line style="stroke:#181818;stroke-width:1;" x1="610.2034" x2="610.2034" y1="1057.7183" y2="1070.7183"/><line style="stroke:#181818;stroke-width:1;" x1="569.2034" x2="610.2034" y1="1070.7183" y2="1070.7183"/><polygon fill="#181818" points="579.2034,1066.7183,569.2034,1070.7183,579.2034,1074.7183,575.2034,1070.7183" style="stroke:#181818;stroke-width:1;"/><text fill="#000000" font-family="sans-serif" font-size="13" lengthAdjust="spacing" textLength="164.7492" x="575.2034" y="1051.9093">practice heightened mind()</text><line style="stroke:#181818;stroke-width:1;" x1="568.2034" x2="610.2034" y1="1102.4243" y2="1102.4243"/><line style="stroke:#181818;stroke-width:1;" x1="610.2034" x2="610.2034" y1="1102.4243" y2="1115.4243"/><line style="stroke:#181818;stroke-width:1;" x1="569.2034" x2="610.2034" y1="1115.4243" y2="1115.4243"/><polygon fill="#181818" points="579.2034,1111.4243,569.2034,1115.4243,579.2034,1119.4243,575.2034,1115.4243" style="stroke:#181818;stroke-width:1;"/><text fill="#000000" font-family="sans-serif" font-size="13" lengthAdjust="spacing" textLength="209.9762" x="575.2034" y="1096.6153">practice heightened discernment()</text><polygon fill="#181818" points="274.5202,1143.1304,284.5202,1147.1304,274.5202,1151.1304,278.5202,1147.1304" style="stroke:#181818;stroke-width:1;"/><line style="stroke:#181818;stroke-width:1;" x1="45.1469" x2="280.5202" y1="1147.1304" y2="1147.1304"/><text fill="#000000" font-family="sans-serif" font-size="13" lengthAdjust="spacing" textLength="217.3732" x="52.1469" y="1141.3214">enter and remain in concentration()</text><polygon fill="#FEFFDD" points="24.9266,1160.1304,811.9266,1160.1304,821.9266,1181.1304,811.9266,1203.1304,24.9266,1203.1304,14.9266,1181.1304,24.9266,1160.1304" style="stroke:#181818;stroke-width:0.5;"/><text fill="#000000" font-family="sans-serif" font-size="13" lengthAdjust="spacing" textLength="282.6462" x="255.8381" y="1178.0274">greed = false, aversion = false, delusion = false</text><text fill="#000000" font-family="sans-serif" font-size="13" lengthAdjust="spacing" textLength="325.6503" x="255.8381" y="1195.7334">all skillful qualities = 100%, all unskillful qualities = 0%</text><polygon fill="#181818" points="56.1469,1228.2484,46.1469,1232.2484,56.1469,1236.2484,52.1469,1232.2484" style="stroke:#181818;stroke-width:1;"/><line style="stroke:#181818;stroke-width:1;" x1="50.1469" x2="285.5202" y1="1232.2484" y2="1232.2484"/><text fill="#000000" font-family="sans-serif" font-size="13" lengthAdjust="spacing" textLength="52.039" x="62.1469" y="1226.4394">release()</text><line style="stroke:#181818;stroke-width:1;" x1="165.8336" x2="165.8336" y1="544.2461" y2="598.9521"/><polygon fill="#181818" points="161.8336,554.2461,165.8336,544.2461,169.8336,554.2461,165.8336,550.2461" style="stroke:#181818;stroke-width:1;"/><polygon fill="#181818" points="161.8336,588.9521,165.8336,598.9521,169.8336,588.9521,165.8336,592.9521" style="stroke:#181818;stroke-width:1;"/><text fill="#000000" font-family="sans-serif" font-size="13" lengthAdjust="spacing" textLength="109.1741" x="169.8336" y="558.9371">some time passes</text><text fill="#000000" font-family="sans-serif" font-size="13" lengthAdjust="spacing" textLength="80.1191" x="184.3611" y="576.6431">&amp; hr starts to</text><text fill="#000000" font-family="sans-serif" font-size="13" lengthAdjust="spacing" textLength="108.9791" x="169.931" y="594.3492">miss renunciation</text><!--SRC=[hLJRRjim37ttLt05sdL0qyiUWsP_i3_eYs8njbPPyaIwxLRittUaEgszUkc6BSW5eNavF3panNjgdMNQnQZR-43lBwftVJ9DPqWvVYTD0rUzIUfgrvkWL3jLyzeYdrsmCxCcuu8BJLLjDdGbCBYEoGWPwcAufSscQaDKcEeKHTRK96PBcrBoZCmT9t4nF1ii-s5Yg9eKXvuSycqzaqRgK4_nePPTqoe7PEk0YaIDibI4Ly5AgqyJq6lYe9p8m3DnJa9urp7Ki2UZA7dwuIMun2ndsBaaUdv-3ZAJjlIbDS7yKQ2stB5daJ66GUNOttPG2jnuhbL8k1uvE269tkbWCrDRG8z1NXYVTNeKaJvHpx7tV0IQ6PbGrmHajSLtxl8hHWCWmYWUP30USn2N-090z4rUMYCbZYdkI5e30Po0sguVGlr4BAQvCrvuZddVoNhV72fDMNcQ5HI2LZ3vBSCNkcepq3PwowdaUyJaa_vOdZg-1jzm7lROcjDlRtO4lRbGUvV5fV7U92j04j2FCmiTFGBqllxrQZNTbId0QrGfhclC5IILLUcD2CjDEA4sKN7CpTw4picyvl-0N5OA22XlwqVyljxM9-f3l2TxpzvdoeiWBTipx1pRtU2XncGXBemvCIGwQEPXOQvuEdHSwDuRvmxFMZ_aC-x00HVKAN_qO2c_omklAVeij4N0_93LTdfrUNdy-qoudD1rpTCJTEUI3eSWBWNbk_MN8TP9pIbqFFPQ_TErMpxDHTYpspnQ9iUvM6w2yPxardaFLT3NibsE1SypWqY1nqDOTBWyVeP-lPf1JpYIHZANKEfF]--></g></svg>