<svg xmlns="http://www.w3.org/2000/svg" xmlns:xlink="http://www.w3.org/1999/xlink" contentStyleType="text/css" data-diagram-type="ACTIVITY" height="1326px" preserveAspectRatio="none" style="width:3836px;height:1326px;background:#FFFFFF;" version="1.1" viewBox="0 0 3836 1326" width="3836px" zoomAndPan="magnify"><title>Workflow of Tranquility &amp; Insight in the Training Path</title><defs/><g><g class="title" data-source-line="1"><text fill="#000000" font-family="sans-serif" font-size="14" font-weight="bold" lengthAdjust="spacing" textLength="425.4277" x="1703.8013" y="32.9951">Workflow of Tranquility &amp; Insight in the Training Path</text></g><ellipse cx="1918.0151" cy="57.2969" fill="#222222" rx="10" ry="10" style="stroke:#222222;stroke-width:1;"/><rect fill="#F1F1F1" height="33.9688" rx="12.5" ry="12.5" style="stroke:#181818;stroke-width:0.5;" width="354.1953" x="1740.9175" y="87.2969"/><text fill="#000000" font-family="sans-serif" font-size="12" lengthAdjust="spacing" textLength="85.9512" x="1750.9175" y="108.4355">Starting Point:</text><text fill="#000000" font-family="sans-serif" font-size="12" font-weight="bold" lengthAdjust="spacing" textLength="244.4297" x="1840.6831" y="108.4355">Uninstructed Run-of-the-Mill Person</text><rect fill="none" height="164.1719" style="stroke:#000000;stroke-width:1.5;" width="761.3203" x="1750.9888" y="131.2656"/><path d="M2061.0112,131.2656 L2061.0112,140.5625 L2051.0112,150.5625 L1750.9888,150.5625" fill="none" style="stroke:#000000;stroke-width:1.5;"/><text fill="#000000" font-family="sans-serif" font-size="14" lengthAdjust="spacing" textLength="300.0225" x="1753.9888" y="145.2607">Foundational Practices for a Noble Disciple</text><rect fill="#F1F1F1" height="47.9375" rx="12.5" ry="12.5" style="stroke:#181818;stroke-width:0.5;" width="314.0527" x="1760.9888" y="167.5625"/><text fill="#000000" font-family="sans-serif" font-size="12" lengthAdjust="spacing" textLength="78.2109" x="1770.9888" y="188.7012">Continuously</text><text fill="#000000" font-family="sans-serif" font-size="12" font-weight="bold" lengthAdjust="spacing" textLength="107.0215" x="1853.0142" y="188.7012">Cultivate Virtue</text><text fill="#000000" font-family="sans-serif" font-size="12" lengthAdjust="spacing" textLength="294.0527" x="1770.9888" y="202.6699">(Restraint, good behavior, guard sense faculties)</text><path d="M2060.4976,246.9023 L2060.4976,255.4688 L2040.4976,259.4688 L2060.4976,263.4688 L2060.4976,272.0352 A0,0 0 0 0 2060.4976,272.0352 L2502.3091,272.0352 A0,0 0 0 0 2502.3091,272.0352 L2502.3091,256.9023 L2492.3091,246.9023 L2060.4976,246.9023 A0,0 0 0 0 2060.4976,246.9023" fill="#FEFFDD" style="stroke:#181818;stroke-width:0.5;"/><path d="M2492.3091,246.9023 L2492.3091,256.9023 L2502.3091,256.9023 L2492.3091,246.9023" fill="#FEFFDD" style="stroke:#181818;stroke-width:0.5;"/><text fill="#000000" font-family="sans-serif" font-size="13" lengthAdjust="spacing" textLength="420.8115" x="2066.4976" y="263.9692">These form the ethical and attentional basis for deeper practice.</text><rect fill="#F1F1F1" height="47.9375" rx="12.5" ry="12.5" style="stroke:#181818;stroke-width:0.5;" width="244.9648" x="1795.5327" y="235.5"/><text fill="#000000" font-family="sans-serif" font-size="12" lengthAdjust="spacing" textLength="78.2109" x="1805.5327" y="256.6387">Continuously</text><text fill="#000000" font-family="sans-serif" font-size="12" font-weight="bold" lengthAdjust="spacing" textLength="142.9395" x="1887.5581" y="256.6387">Develop Heedfulness</text><text fill="#000000" font-family="sans-serif" font-size="12" lengthAdjust="spacing" textLength="221.3086" x="1805.5327" y="270.6074">(Mindfulness, Alertness, Persistence)</text><rect fill="none" height="970.1914" style="stroke:#000000;stroke-width:1.5;" width="3814.0303" x="11" y="305.4375"/><path d="M204.4834,305.4375 L204.4834,314.7344 L194.4834,324.7344 L11,324.7344" fill="none" style="stroke:#000000;stroke-width:1.5;"/><text fill="#000000" font-family="sans-serif" font-size="14" lengthAdjust="spacing" textLength="183.4834" x="14" y="319.4326">The Gradual Training Path</text><rect fill="#F1F1F1" height="47.9375" rx="12.5" ry="12.5" style="stroke:#181818;stroke-width:0.5;" width="207.834" x="1814.0981" y="341.7344"/><text fill="#000000" font-family="sans-serif" font-size="12" lengthAdjust="spacing" textLength="133.1777" x="1824.0981" y="362.873">Engage with Dhamma</text><text fill="#000000" font-family="sans-serif" font-size="12" lengthAdjust="spacing" textLength="187.834" x="1824.0981" y="376.8418">(Listen &amp; Attend Appropriately)</text><path d="M2070.3354,406.5234 L2070.3354,422.6563 L2050.3354,426.6563 L2070.3354,430.6563 L2070.3354,446.7891 A0,0 0 0 0 2070.3354,446.7891 L2550.1694,446.7891 A0,0 0 0 0 2550.1694,446.7891 L2550.1694,416.5234 L2540.1694,406.5234 L2070.3354,406.5234 A0,0 0 0 0 2070.3354,406.5234" fill="#FEFFDD" style="stroke:#181818;stroke-width:0.5;"/><path d="M2540.1694,406.5234 L2540.1694,416.5234 L2550.1694,416.5234 L2540.1694,406.5234" fill="#FEFFDD" style="stroke:#181818;stroke-width:0.5;"/><text fill="#000000" font-family="sans-serif" font-size="13" lengthAdjust="spacing" textLength="346.2773" x="2076.3354" y="423.5903">This sensitivity leads to a sequence of mental states:</text><text fill="#000000" font-family="sans-serif" font-size="13" lengthAdjust="spacing" textLength="355.4624" x="2076.3354" y="438.7231">Joy -&gt; Rapture -&gt; Calm -&gt; Pleasure -&gt; Mind becoming</text><text fill="#000000" font-family="sans-serif" font-size="13" font-weight="bold" lengthAdjust="spacing" textLength="99.2393" x="2435.9302" y="438.7231">Concentrated</text><rect fill="#F1F1F1" height="33.9688" rx="12.5" ry="12.5" style="stroke:#181818;stroke-width:0.5;" width="264.6406" x="1785.6948" y="409.6719"/><text fill="#000000" font-family="sans-serif" font-size="12" lengthAdjust="spacing" textLength="244.6406" x="1795.6948" y="430.8105">Sensitivity to Meaning &amp; Dhamma arises</text><line style="stroke:#181818;stroke-width:1.5;" x1="1883.4458" x2="1918.0151" y1="466.7891" y2="466.7891"/><path d="M1130.9333,486.7891 L1130.9333,511.9219 L2635.9583,511.9219 L2635.9583,496.7891 L2625.9583,486.7891 L1130.9333,486.7891" fill="#FEFFDD" style="stroke:#181818;stroke-width:0.5;"/><path d="M2625.9583,486.7891 L2625.9583,496.7891 L2635.9583,496.7891 L2625.9583,486.7891" fill="#FEFFDD" style="stroke:#181818;stroke-width:0.5;"/><text fill="#000000" font-family="sans-serif" font-size="13" font-weight="bold" lengthAdjust="spacing" textLength="79.9233" x="1136.9333" y="503.856">Tranquility</text><text fill="#000000" font-family="sans-serif" font-size="13" lengthAdjust="spacing" textLength="1399.9692" x="1220.989" y="503.856">refers to the development of stillness and calm, often through concentration practices like the jh&#257;nas. This leads to a developed mind and the abandonment of passion. The mind becomes soft, pliant, and luminous.</text><rect fill="none" height="272.1094" style="stroke:#000000;stroke-width:1.5;" width="383.8926" x="1691.4995" y="521.9219"/><path d="M1971.1021,521.9219 L1971.1021,531.2188 L1961.1021,541.2188 L1691.4995,541.2188" fill="none" style="stroke:#000000;stroke-width:1.5;"/><text fill="#000000" font-family="sans-serif" font-size="14" lengthAdjust="spacing" textLength="269.6025" x="1694.4995" y="535.917">Development of Tranquility (Samatha)</text><rect fill="#90EE90" height="33.9688" rx="12.5" ry="12.5" style="stroke:#181818;stroke-width:0.5;" width="328.332" x="1719.2798" y="558.2188"/><text fill="#000000" font-family="sans-serif" font-size="12" lengthAdjust="spacing" textLength="52.4121" x="1729.2798" y="579.3574">Purpose:</text><text fill="#000000" font-family="sans-serif" font-size="12" font-weight="bold" lengthAdjust="spacing" textLength="118.9688" x="1785.5063" y="579.3574">Develop the Mind</text><text fill="#000000" font-family="sans-serif" font-size="12" lengthAdjust="spacing" textLength="9.3574" x="1908.2896" y="579.3574">&amp;</text><text fill="#000000" font-family="sans-serif" font-size="12" font-weight="bold" lengthAdjust="spacing" textLength="116.1504" x="1921.4614" y="579.3574">Abandon Passion</text><rect fill="#F1F1F1" height="47.9375" rx="12.5" ry="12.5" style="stroke:#181818;stroke-width:0.5;" width="247.5898" x="1759.6509" y="612.1875"/><text fill="#000000" font-family="sans-serif" font-size="12" lengthAdjust="spacing" textLength="109.0254" x="1769.6509" y="633.3262">Practice Seclusion</text><text fill="#000000" font-family="sans-serif" font-size="12" lengthAdjust="spacing" textLength="227.5898" x="1769.6509" y="647.2949">(from sensuality &amp; unskillful qualities)</text><rect fill="#F1F1F1" height="33.9688" rx="12.5" ry="12.5" style="stroke:#181818;stroke-width:0.5;" width="363.8926" x="1701.4995" y="680.125"/><text fill="#000000" font-family="sans-serif" font-size="12" lengthAdjust="spacing" textLength="343.8926" x="1711.4995" y="701.2637">Enter &amp; Remain in Jh&#257;nas (States of Deep Concentration)</text><rect fill="#F1F1F1" height="47.9375" rx="12.5" ry="12.5" style="stroke:#181818;stroke-width:0.5;" width="298.2969" x="1734.2974" y="734.0938"/><text fill="#000000" font-family="sans-serif" font-size="12" lengthAdjust="spacing" textLength="86.9883" x="1744.2974" y="755.2324">Mind becomes</text><text fill="#000000" font-family="sans-serif" font-size="12" font-weight="bold" lengthAdjust="spacing" textLength="187.4941" x="1835.1001" y="755.2324">Pliant, Malleable, Luminous</text><text fill="#000000" font-family="sans-serif" font-size="12" lengthAdjust="spacing" textLength="221.4844" x="1744.2974" y="769.2012">(Result of Heightened Mind Training)</text><rect fill="none" height="277.6914" style="stroke:#000000;stroke-width:1.5;" width="3790.0303" x="23" y="804.0313"/><path d="M284.002,804.0313 L284.002,813.3281 L274.002,823.3281 L23,823.3281" fill="none" style="stroke:#000000;stroke-width:1.5;"/><text fill="#000000" font-family="sans-serif" font-size="14" lengthAdjust="spacing" textLength="251.002" x="26" y="818.0264">Development of Insight (Vipassan&#257;)</text><rect fill="#ADD8E6" height="33.9688" rx="12.5" ry="12.5" style="stroke:#181818;stroke-width:0.5;" width="369.9746" x="1698.4585" y="840.3281"/><text fill="#000000" font-family="sans-serif" font-size="12" lengthAdjust="spacing" textLength="52.4121" x="1708.4585" y="861.4668">Purpose:</text><text fill="#000000" font-family="sans-serif" font-size="12" font-weight="bold" lengthAdjust="spacing" textLength="145.0371" x="1764.6851" y="861.4668">Develop Discernment</text><text fill="#000000" font-family="sans-serif" font-size="12" lengthAdjust="spacing" textLength="9.3574" x="1913.5366" y="861.4668">&amp;</text><text fill="#000000" font-family="sans-serif" font-size="12" font-weight="bold" lengthAdjust="spacing" textLength="131.7246" x="1926.7085" y="861.4668">Abandon Ignorance</text><rect fill="#F1F1F1" height="47.9375" rx="12.5" ry="12.5" style="stroke:#181818;stroke-width:0.5;" width="241.5078" x="1762.6919" y="894.2969"/><text fill="#000000" font-family="sans-serif" font-size="12" lengthAdjust="spacing" textLength="68.8535" x="1772.6919" y="915.4355">Discern the</text><text fill="#000000" font-family="sans-serif" font-size="12" font-weight="bold" lengthAdjust="spacing" textLength="122.4551" x="1845.3599" y="915.4355">Four Noble Truths</text><text fill="#000000" font-family="sans-serif" font-size="12" lengthAdjust="spacing" textLength="221.5078" x="1772.6919" y="929.4043">(Stress, Origination, Cessation, Path)</text><rect fill="#F1F1F1" height="47.9375" rx="12.5" ry="12.5" style="stroke:#181818;stroke-width:0.5;" width="307.7715" x="1729.5601" y="962.2344"/><text fill="#000000" font-family="sans-serif" font-size="12" lengthAdjust="spacing" textLength="106.7344" x="1739.5601" y="983.373">See Phenomena "</text><text fill="#000000" font-family="sans-serif" font-size="12" font-weight="bold" lengthAdjust="spacing" textLength="175.5176" x="1846.2944" y="983.373">As They Have Come To Be</text><text fill="#000000" font-family="sans-serif" font-size="12" lengthAdjust="spacing" textLength="5.5195" x="2021.812" y="983.373">"</text><text fill="#000000" font-family="sans-serif" font-size="12" lengthAdjust="spacing" textLength="214.1016" x="1739.5601" y="997.3418">(e.g., inconstant, stressful, not-self)</text><path d="M43,1034.5898 L43,1059.7227 L1731.0151,1059.7227 L1731.0151,1044.5898 L1721.0151,1034.5898 L43,1034.5898" fill="#FEFFDD" style="stroke:#181818;stroke-width:0.5;"/><path d="M1721.0151,1034.5898 L1721.0151,1044.5898 L1731.0151,1044.5898 L1721.0151,1034.5898" fill="#FEFFDD" style="stroke:#181818;stroke-width:0.5;"/><text fill="#000000" font-family="sans-serif" font-size="13" font-weight="bold" lengthAdjust="spacing" textLength="167.3687" x="49" y="1051.6567">Tranquility and Insight</text><text fill="#000000" font-family="sans-serif" font-size="13" lengthAdjust="spacing" textLength="69.2275" x="220.501" y="1051.6567">are said to</text><text fill="#000000" font-family="sans-serif" font-size="13" font-weight="bold" lengthAdjust="spacing" textLength="118.6821" x="293.8608" y="1051.6567">occur in tandem</text><text fill="#000000" font-family="sans-serif" font-size="13" lengthAdjust="spacing" textLength="926.8848" x="416.6753" y="1051.6567">and are both crucial for reaching higher states of knowledge and release, even aiding in the cessation of perception and feeling. The path is a</text><text fill="#000000" font-family="sans-serif" font-size="13" font-weight="bold" lengthAdjust="spacing" textLength="364.1904" x="1347.6924" y="1051.6567">gradual training, gradual action, gradual practice</text><text fill="#000000" font-family="sans-serif" font-size="13" lengthAdjust="spacing" textLength="4.1323" x="1711.8828" y="1051.6567">.</text><path d="M2035.8765,1034.5898 L2035.8765,1059.7227 L3793.0303,1059.7227 L3793.0303,1044.5898 L3783.0303,1034.5898 L2035.8765,1034.5898" fill="#FEFFDD" style="stroke:#181818;stroke-width:0.5;"/><path d="M3783.0303,1034.5898 L3783.0303,1044.5898 L3793.0303,1044.5898 L3783.0303,1034.5898" fill="#FEFFDD" style="stroke:#181818;stroke-width:0.5;"/><text fill="#000000" font-family="sans-serif" font-size="13" font-weight="bold" lengthAdjust="spacing" textLength="51.0605" x="2041.8765" y="1051.6567">Insight</text><text fill="#000000" font-family="sans-serif" font-size="13" lengthAdjust="spacing" textLength="1680.9609" x="2097.0693" y="1051.6567">refers to the development of clear seeing and understanding, particularly through discerning the Four Noble Truths and the impermanent, stressful, and not-self nature of phenomena. This leads to developed discernment and the abandonment of ignorance.</text><rect fill="#F1F1F1" height="33.9688" rx="12.5" ry="12.5" style="stroke:#181818;stroke-width:0.5;" width="284.8613" x="1741.0151" y="1030.1719"/><text fill="#000000" font-family="sans-serif" font-size="12" lengthAdjust="spacing" textLength="51.1523" x="1751.0151" y="1051.3105">Leads to</text><text fill="#000000" font-family="sans-serif" font-size="12" font-weight="bold" lengthAdjust="spacing" textLength="209.8945" x="1805.9819" y="1051.3105">Piercing the Mass of Ignorance</text><line style="stroke:#181818;stroke-width:1.5;" x1="1883.4458" x2="1918.0151" y1="1101.7227" y2="1101.7227"/><rect fill="#F1F1F1" height="33.9688" rx="12.5" ry="12.5" style="stroke:#181818;stroke-width:0.5;" width="286.2734" x="1774.8784" y="1121.7227"/><text fill="#000000" font-family="sans-serif" font-size="12" font-weight="bold" lengthAdjust="spacing" textLength="266.2734" x="1784.8784" y="1142.8613">Abandon Passion, Aversion, &amp; Delusion</text><rect fill="#F1F1F1" height="33.9688" rx="12.5" ry="12.5" style="stroke:#181818;stroke-width:0.5;" width="353.873" x="1741.0786" y="1175.6914"/><text fill="#000000" font-family="sans-serif" font-size="12" lengthAdjust="spacing" textLength="35.9121" x="1751.0786" y="1196.8301">Attain</text><text fill="#000000" font-family="sans-serif" font-size="12" font-weight="bold" lengthAdjust="spacing" textLength="294.1465" x="1790.8052" y="1196.8301">Awareness-Release &amp; Discernment-Release</text><rect fill="#F1F1F1" height="33.9688" rx="12.5" ry="12.5" style="stroke:#181818;stroke-width:0.5;" width="344.6211" x="1745.7046" y="1229.6602"/><text fill="#000000" font-family="sans-serif" font-size="12" lengthAdjust="spacing" textLength="43.4238" x="1755.7046" y="1250.7988">Realize</text><text fill="#000000" font-family="sans-serif" font-size="12" font-weight="bold" lengthAdjust="spacing" textLength="277.3828" x="1802.9429" y="1250.7988">Ending of Suffering &amp; Stress (Unbinding)</text><ellipse cx="1918.0151" cy="1305.6289" fill="none" rx="10" ry="10" style="stroke:#222222;stroke-width:1.5;"/><line style="stroke:#222222;stroke-width:2.5;" x1="1911.828" x2="1924.2023" y1="1299.4417" y2="1311.8161"/><line style="stroke:#222222;stroke-width:2.5;" x1="1924.2023" x2="1911.828" y1="1299.4417" y2="1311.8161"/><line style="stroke:#181818;stroke-width:1;" x1="1918.0151" x2="1918.0151" y1="67.2969" y2="87.2969"/><polygon fill="#181818" points="1914.0151,77.2969,1918.0151,87.2969,1922.0151,77.2969,1918.0151,81.2969" style="stroke:#181818;stroke-width:1;"/><line style="stroke:#181818;stroke-width:1;" x1="1918.0151" x2="1918.0151" y1="215.5" y2="235.5"/><polygon fill="#181818" points="1914.0151,225.5,1918.0151,235.5,1922.0151,225.5,1918.0151,229.5" style="stroke:#181818;stroke-width:1;"/><line style="stroke:#181818;stroke-width:1;" x1="1918.0151" x2="1918.0151" y1="121.2656" y2="167.5625"/><polygon fill="#181818" points="1914.0151,157.5625,1918.0151,167.5625,1922.0151,157.5625,1918.0151,161.5625" style="stroke:#181818;stroke-width:1;"/><line style="stroke:#181818;stroke-width:1;" x1="1918.0151" x2="1918.0151" y1="389.6719" y2="409.6719"/><polygon fill="#181818" points="1914.0151,399.6719,1918.0151,409.6719,1922.0151,399.6719,1918.0151,403.6719" style="stroke:#181818;stroke-width:1;"/><line style="stroke:#181818;stroke-width:1;" x1="1883.4458" x2="1883.4458" y1="592.1875" y2="612.1875"/><polygon fill="#181818" points="1879.4458,602.1875,1883.4458,612.1875,1887.4458,602.1875,1883.4458,606.1875" style="stroke:#181818;stroke-width:1;"/><line style="stroke:#181818;stroke-width:1;" x1="1883.4458" x2="1883.4458" y1="660.125" y2="680.125"/><polygon fill="#181818" points="1879.4458,670.125,1883.4458,680.125,1887.4458,670.125,1883.4458,674.125" style="stroke:#181818;stroke-width:1;"/><line style="stroke:#181818;stroke-width:1;" x1="1883.4458" x2="1883.4458" y1="714.0938" y2="734.0938"/><polygon fill="#181818" points="1879.4458,724.0938,1883.4458,734.0938,1887.4458,724.0938,1883.4458,728.0938" style="stroke:#181818;stroke-width:1;"/><line style="stroke:#181818;stroke-width:1;" x1="1883.4458" x2="1883.4458" y1="511.9219" y2="558.2188"/><polygon fill="#181818" points="1879.4458,548.2188,1883.4458,558.2188,1887.4458,548.2188,1883.4458,552.2188" style="stroke:#181818;stroke-width:1;"/><line style="stroke:#181818;stroke-width:1;" x1="1883.4458" x2="1883.4458" y1="874.2969" y2="894.2969"/><polygon fill="#181818" points="1879.4458,884.2969,1883.4458,894.2969,1887.4458,884.2969,1883.4458,888.2969" style="stroke:#181818;stroke-width:1;"/><line style="stroke:#181818;stroke-width:1;" x1="1883.4458" x2="1883.4458" y1="942.2344" y2="962.2344"/><polygon fill="#181818" points="1879.4458,952.2344,1883.4458,962.2344,1887.4458,952.2344,1883.4458,956.2344" style="stroke:#181818;stroke-width:1;"/><line style="stroke:#181818;stroke-width:1;" x1="1883.4458" x2="1883.4458" y1="1010.1719" y2="1030.1719"/><polygon fill="#181818" points="1879.4458,1020.1719,1883.4458,1030.1719,1887.4458,1020.1719,1883.4458,1024.1719" style="stroke:#181818;stroke-width:1;"/><line style="stroke:#181818;stroke-width:1;" x1="1883.4458" x2="1883.4458" y1="782.0313" y2="840.3281"/><polygon fill="#181818" points="1879.4458,830.3281,1883.4458,840.3281,1887.4458,830.3281,1883.4458,834.3281" style="stroke:#181818;stroke-width:1;"/><line style="stroke:#181818;stroke-width:1;" x1="1883.4458" x2="1883.4458" y1="468.2891" y2="486.7891"/><polygon fill="#181818" points="1879.4458,476.7891,1883.4458,486.7891,1887.4458,476.7891,1883.4458,480.7891" style="stroke:#181818;stroke-width:1;"/><line style="stroke:#181818;stroke-width:1;" x1="1883.4458" x2="1883.4458" y1="1064.1406" y2="1101.7227"/><polygon fill="#181818" points="1879.4458,1091.7227,1883.4458,1101.7227,1887.4458,1091.7227,1883.4458,1095.7227" style="stroke:#181818;stroke-width:1;"/><line style="stroke:#181818;stroke-width:1;" x1="1918.0151" x2="1918.0151" y1="443.6406" y2="466.7891"/><polygon fill="#181818" points="1914.0151,456.7891,1918.0151,466.7891,1922.0151,456.7891,1918.0151,460.7891" style="stroke:#181818;stroke-width:1;"/><line style="stroke:#181818;stroke-width:1;" x1="1918.0151" x2="1918.0151" y1="1103.2227" y2="1121.7227"/><polygon fill="#181818" points="1914.0151,1111.7227,1918.0151,1121.7227,1922.0151,1111.7227,1918.0151,1115.7227" style="stroke:#181818;stroke-width:1;"/><line style="stroke:#181818;stroke-width:1;" x1="1918.0151" x2="1918.0151" y1="1155.6914" y2="1175.6914"/><polygon fill="#181818" points="1914.0151,1165.6914,1918.0151,1175.6914,1922.0151,1165.6914,1918.0151,1169.6914" style="stroke:#181818;stroke-width:1;"/><line style="stroke:#181818;stroke-width:1;" x1="1918.0151" x2="1918.0151" y1="1209.6602" y2="1229.6602"/><polygon fill="#181818" points="1914.0151,1219.6602,1918.0151,1229.6602,1922.0151,1219.6602,1918.0151,1223.6602" style="stroke:#181818;stroke-width:1;"/><line style="stroke:#181818;stroke-width:1;" x1="1918.0151" x2="1918.0151" y1="283.4375" y2="341.7344"/><polygon fill="#181818" points="1914.0151,331.7344,1918.0151,341.7344,1922.0151,331.7344,1918.0151,335.7344" style="stroke:#181818;stroke-width:1;"/><line style="stroke:#181818;stroke-width:1;" x1="1918.0151" x2="1918.0151" y1="1263.6289" y2="1295.6289"/><polygon fill="#181818" points="1914.0151,1285.6289,1918.0151,1295.6289,1922.0151,1285.6289,1918.0151,1289.6289" style="stroke:#181818;stroke-width:1;"/><!--SRC=[XLR1Rjiu4BtxAmOk42I2xGzmWGMoINRJ8jarxBHxsGijZInkA58XgGJPHG_zjtxOlg4esqrIz69J5Fauy-RDewAEXkalv-zhuvx8rNJdbNtejT7ncKxeWmrwrqJIbcB3yb9RRNUqKh6PJ49KFaucoutyfscdRLnIKNp2gX1zNqQkQDtRkQld09ZVQcDenJuuMnJl9vETTtr7qzzSRoiLjRCAhxqgeouvKEqyAVh3RH7ZfGwbxWnF9qJB2sTnNk_wO9vnsaLledvKaUcpzh7delZRdguP0I3SEAETSnLjkL6FsdayzifN5DW6fbgLifd3sVitW2_vaOthw9gvgdjZEOI4VQlj-3oZSyC-3aF9J8V8jkI4PnrYyi8W7eZk6fOZdMyJcnmRNI9XPIjI4Rio0Li5a9HynTonfoupiW0AOx70JcIGwDkp27ZwtQkg1yPtbKgSNTcTsZ4zwTZGPQFQLY6HcnGj2dqkvrTqtdNUTLw3I_CyKB81JnhqYY2YerjM2VSaWv3oEd1uCrja4Ovs6rPL40o5wOTUM1B5jKWS4KDCaSCoRVtedcd-2wrL5tlFChnGffN_5K12dfCgeAobQoKWoC01qQBe45rH77E5SUWWwGIU0pLSHyeJXDr7mYyAyboZbXAiLAeQT22HIiGXGiPIyLGwbB2TOLg8Z0rAiMket8U2akxh5yZeUqw8_pJVlbeL5WDBHypaez0shQGd1yXwjSN8sJ62JeK0PDdEmyB40qu826H6I5Q9ycMxwR40YbxaPFUio4FwwQHzKwJJo-ypFNQ3qurg8IPrDgN_CjGx8zNUUMQxNFM-Su6NHsqZWKkHmES9fi-772395BmOm02p75kUDboQNbv2cxLtRT8Fz3ouKM_3FPX7vz53cXpxDe5SsOXUEQ4rjz2-MDR7WMH4dhGb2LsYe-ZYk3e7WDjZ7ejYbJcyLGRrWGVDw2PJEHeCh4D0hrbeO8kY9Oon-JBqbybFM1vTzlIpbi8g- -thAvAtfkUtE1PVP9-4yOBc3plhKBwIZuZEgrDbYWAswxEztla-DaDUc-YJcVs9LjOsSJIZ2qpbeJZAWRGDCwqQjY3DAfhY-22YVAPhzSXWkWMseryHn1JOlDWjPYWD-WFzBko6T1fAEXDHpWER-W1-C_O5gg7PbzBdILHWAH7tCiKlnnr-iAAXmpFDF-lk4jNs41xBQT90k9km6k5Mc9aDTSIjeJpkYB7Xgu7OCS1NpEuRMRTmz5PPVf6y6heo4K1WNJnE6dsazgLJ77oYEYZWHtQXHvvUUK1soS4T9zd49wySCG4V-5C8BYXT3QLnPObivHC1gxYLz-9SMBDrk6nAV0Pe6BnSQ9vLsGX93P3GhM7VcFVMFHckS4F9Pi_Yy-WuP6a99ycU_15IZb9C_40LtAKdsLSp6omTVB63K0cSASIuo_TYpAs9hu0y8yuZiXwVHxCkYiMBAsJvoi9m-J_AbIyZN8WyUDSWnYMkLF4XR7e25t9TpDT3MhBsKBHnDczRCvpjNsdFgoGuoNBJrn3iSEqExKcdd-nMfmLdil7eQm33_m40]--></g></svg>