<svg xmlns="http://www.w3.org/2000/svg" xmlns:xlink="http://www.w3.org/1999/xlink" contentStyleType="text/css" data-diagram-type="ACTIVITY" height="1426px" preserveAspectRatio="none" style="width:1751px;height:1426px;background:#FFFFFF;" version="1.1" viewBox="0 0 1751 1426" width="1751px" zoomAndPan="magnify"><title>Mindfulness &amp; Alertness in the Path of Training</title><defs/><g><g class="title" data-source-line="1"><text fill="#000000" font-family="sans-serif" font-size="14" font-weight="bold" lengthAdjust="spacing" textLength="375.334" x="686.7678" y="32.9951">Mindfulness &amp; Alertness in the Path of Training</text></g><ellipse cx="833.1904" cy="57.2969" fill="#222222" rx="10" ry="10" style="stroke:#222222;stroke-width:1;"/><rect fill="#F1F1F1" height="33.9688" rx="12.5" ry="12.5" style="stroke:#181818;stroke-width:0.5;" width="134.7734" x="765.8037" y="87.2969"/><text fill="#000000" font-family="sans-serif" font-size="12" lengthAdjust="spacing" textLength="114.7734" x="775.8037" y="108.4355">Disciple in Training</text><rect fill="none" height="298.1406" style="stroke:#000000;stroke-width:1.5;" width="491.9922" x="587.1943" y="131.2656"/><path d="M862.4971,131.2656 L862.4971,140.5625 L852.4971,150.5625 L587.1943,150.5625" fill="none" style="stroke:#000000;stroke-width:1.5;"/><text fill="#000000" font-family="sans-serif" font-size="14" lengthAdjust="spacing" textLength="265.3027" x="590.1943" y="145.2607">1. Training in Heightened Virtue (S&#299;la)</text><rect fill="#F1F1F1" height="33.9688" rx="12.5" ry="12.5" style="stroke:#181818;stroke-width:0.5;" width="205.584" x="730.3984" y="167.5625"/><text fill="#000000" font-family="sans-serif" font-size="12" lengthAdjust="spacing" textLength="185.584" x="740.3984" y="188.7012">Cultivate Admirable Friendship</text><rect fill="#F1F1F1" height="33.9688" rx="12.5" ry="12.5" style="stroke:#181818;stroke-width:0.5;" width="310.8125" x="677.7842" y="221.5313"/><text fill="#000000" font-family="sans-serif" font-size="12" lengthAdjust="spacing" textLength="290.8125" x="687.7842" y="242.6699">Hear Dhamma &amp; cultivate Appropriate Attention</text><rect fill="#F1F1F1" height="33.9688" rx="12.5" ry="12.5" style="stroke:#181818;stroke-width:0.5;" width="471.9922" x="597.1943" y="275.5"/><text fill="#000000" font-family="sans-serif" font-size="12" lengthAdjust="spacing" textLength="451.9922" x="607.1943" y="296.6387">Practice Virtue (restraint from misconduct, seeing danger in slightest fault)</text><rect fill="#F1F1F1" height="33.9688" rx="12.5" ry="12.5" style="stroke:#181818;stroke-width:0.5;" width="447.6816" x="609.3496" y="329.4688"/><text fill="#000000" font-family="sans-serif" font-size="12" lengthAdjust="spacing" textLength="427.6816" x="619.3496" y="350.6074">Guard Sense Faculties (restraint from grasping at themes &amp; variations)</text><rect fill="#F1F1F1" height="33.9688" rx="12.5" ry="12.5" style="stroke:#181818;stroke-width:0.5;" width="181.1797" x="742.6006" y="383.4375"/><text fill="#000000" font-family="sans-serif" font-size="12" lengthAdjust="spacing" textLength="161.1797" x="752.6006" y="404.5762">Know Moderation in Eating</text><rect fill="none" height="560.7422" style="stroke:#000000;stroke-width:1.5;" width="1729.8696" x="11" y="462.2109"/><path d="M313.9199,462.2109 L313.9199,471.5078 L303.9199,481.5078 L11,481.5078" fill="none" style="stroke:#000000;stroke-width:1.5;"/><text fill="#000000" font-family="sans-serif" font-size="14" lengthAdjust="spacing" textLength="292.9199" x="14" y="476.2061">2. Training in Heightened Mind (Sam&#257;dhi)</text><path d="M1026.7842,502.9258 L1026.7842,511.4922 L1006.7842,515.4922 L1026.7842,519.4922 L1026.7842,528.0586 A0,0 0 0 0 1026.7842,528.0586 L1476.835,528.0586 A0,0 0 0 0 1476.835,528.0586 L1476.835,512.9258 L1466.835,502.9258 L1026.7842,502.9258 A0,0 0 0 0 1026.7842,502.9258" fill="#FEFFDD" style="stroke:#181818;stroke-width:0.5;"/><path d="M1466.835,502.9258 L1466.835,512.9258 L1476.835,512.9258 L1466.835,502.9258" fill="#FEFFDD" style="stroke:#181818;stroke-width:0.5;"/><text fill="#000000" font-family="sans-serif" font-size="13" lengthAdjust="spacing" textLength="53.1807" x="1032.7842" y="519.9927">This is a</text><text fill="#000000" font-family="sans-serif" font-size="13" font-weight="bold" lengthAdjust="spacing" textLength="90.0034" x="1090.0972" y="519.9927">prerequisite</text><text fill="#000000" font-family="sans-serif" font-size="13" lengthAdjust="spacing" textLength="90.5747" x="1184.2329" y="519.9927">for cultivating</text><text fill="#000000" font-family="sans-serif" font-size="13" font-weight="bold" lengthAdjust="spacing" textLength="178.7627" x="1278.9399" y="519.9927">Mindfulness &amp; Alertness</text><text fill="#000000" font-family="sans-serif" font-size="13" lengthAdjust="spacing" textLength="4.1323" x="1457.7026" y="519.9927">.</text><rect fill="#F1F1F1" height="33.9688" rx="12.5" ry="12.5" style="stroke:#181818;stroke-width:0.5;" width="347.1875" x="659.5967" y="498.5078"/><text fill="#000000" font-family="sans-serif" font-size="12" lengthAdjust="spacing" textLength="59.0156" x="669.5967" y="519.6465">Devote to</text><text fill="#000000" font-family="sans-serif" font-size="12" font-weight="bold" lengthAdjust="spacing" textLength="86.2969" x="732.4268" y="519.6465">Wakefulness</text><text fill="#000000" font-family="sans-serif" font-size="12" lengthAdjust="spacing" textLength="174.2461" x="822.5381" y="519.6465">(cleansing mind day &amp; night)</text><path d="M1009.6382,552.4766 L1009.6382,592.7422 L1699.2051,592.7422 L1699.2051,562.4766 L1689.2051,552.4766 L1009.6382,552.4766" fill="#FEFFDD" style="stroke:#181818;stroke-width:0.5;"/><path d="M1689.2051,552.4766 L1689.2051,562.4766 L1699.2051,562.4766 L1689.2051,552.4766" fill="#FEFFDD" style="stroke:#181818;stroke-width:0.5;"/><text fill="#000000" font-family="sans-serif" font-size="13" lengthAdjust="spacing" textLength="69.5576" x="1015.6382" y="569.5435">Defined as</text><text fill="#000000" font-family="sans-serif" font-size="13" font-weight="bold" lengthAdjust="spacing" textLength="209.9297" x="1089.3281" y="569.5435">full awareness and presence</text><text fill="#000000" font-family="sans-serif" font-size="13" lengthAdjust="spacing" textLength="380.8149" x="1303.3901" y="569.5435">during activities and when observing internal phenomena,</text><text fill="#000000" font-family="sans-serif" font-size="13" lengthAdjust="spacing" textLength="110.627" x="1015.6382" y="584.6763">making the mind</text><text fill="#000000" font-family="sans-serif" font-size="13" font-weight="bold" lengthAdjust="spacing" textLength="315.8022" x="1130.3975" y="584.6763">pliant, malleable, luminous, and not brittle</text><text fill="#000000" font-family="sans-serif" font-size="13" lengthAdjust="spacing" textLength="4.1323" x="1446.1997" y="584.6763">.</text><path d="M987.9736,612.7422 L987.9736,637.875 L1720.8696,637.875 L1720.8696,622.7422 L1710.8696,612.7422 L987.9736,612.7422" fill="#FEFFDD" style="stroke:#181818;stroke-width:0.5;"/><path d="M1710.8696,612.7422 L1710.8696,622.7422 L1720.8696,622.7422 L1710.8696,612.7422" fill="#FEFFDD" style="stroke:#181818;stroke-width:0.5;"/><text fill="#000000" font-family="sans-serif" font-size="13" font-weight="bold" lengthAdjust="spacing" textLength="91.3809" x="993.9736" y="629.8091">Lack of M&amp;A</text><text fill="#000000" font-family="sans-serif" font-size="13" lengthAdjust="spacing" textLength="616.3828" x="1089.4868" y="629.8091">is a "food" for inappropriate attention, leading to a chain of unskillful qualities and hindrances.</text><rect fill="#F1F1F1" height="33.9688" rx="12.5" ry="12.5" style="stroke:#181818;stroke-width:0.5;" width="289.5664" x="688.4072" y="578.1914"/><text fill="#000000" font-family="sans-serif" font-size="12" lengthAdjust="spacing" textLength="53.9004" x="698.4072" y="599.3301">Cultivate</text><text fill="#000000" font-family="sans-serif" font-size="12" font-weight="bold" lengthAdjust="spacing" textLength="211.8516" x="756.1221" y="599.3301">Mindfulness &amp; Alertness (M&amp;A)</text><rect fill="#555555" height="6" rx="2.5" ry="2.5" style="stroke:#555555;stroke-width:1;" width="1644.3809" x="21" y="667.875"/><rect fill="#F1F1F1" height="47.9375" rx="12.5" ry="12.5" style="stroke:#181818;stroke-width:0.5;" width="338.3457" x="33" y="814.4453"/><text fill="#000000" font-family="sans-serif" font-size="12" lengthAdjust="spacing" textLength="80.3672" x="43" y="835.584">Apply M&amp;A in</text><text fill="#000000" font-family="sans-serif" font-size="12" font-weight="bold" lengthAdjust="spacing" textLength="101.6016" x="127.1816" y="835.584">Daily Activities</text><text fill="#000000" font-family="sans-serif" font-size="12" lengthAdjust="spacing" textLength="318.3457" x="43" y="849.5527">(e.g., walking, eating, talking, any bodily movement)</text><rect fill="#F1F1F1" height="33.9688" rx="12.5" ry="12.5" style="stroke:#181818;stroke-width:0.5;" width="242.9551" x="894.8857" y="693.875"/><text fill="#000000" font-family="sans-serif" font-size="12" lengthAdjust="spacing" textLength="80.3672" x="904.8857" y="715.0137">Apply M&amp;A in</text><text fill="#000000" font-family="sans-serif" font-size="12" font-weight="bold" lengthAdjust="spacing" textLength="138.7734" x="989.0674" y="715.0137">Meditative Practices</text><rect fill="none" height="247.1094" style="stroke:#000000;stroke-width:1.5;" width="1270.0352" x="381.3457" y="737.8438"/><path d="M652.7383,737.8438 L652.7383,747.1406 L642.7383,757.1406 L381.3457,757.1406" fill="none" style="stroke:#000000;stroke-width:1.5;"/><text fill="#000000" font-family="sans-serif" font-size="14" lengthAdjust="spacing" textLength="261.3926" x="384.3457" y="751.8389">Meditative Practices Enabled by M&amp;A</text><rect fill="#F1F1F1" height="47.9375" rx="12.5" ry="12.5" style="stroke:#181818;stroke-width:0.5;" width="423.7168" x="804.5049" y="774.1406"/><text fill="#000000" font-family="sans-serif" font-size="12" lengthAdjust="spacing" textLength="48.1406" x="814.5049" y="795.2793">Practice</text><text fill="#000000" font-family="sans-serif" font-size="12" font-weight="bold" lengthAdjust="spacing" textLength="247.5352" x="866.46" y="795.2793">Mindfulness of In-and-Out Breathing</text><text fill="#000000" font-family="sans-serif" font-size="12" lengthAdjust="spacing" textLength="403.7168" x="814.5049" y="809.248">(Calming bodily &amp; mental fabrications, focusing on impermanence)</text><rect fill="#F1F1F1" height="47.9375" rx="12.5" ry="12.5" style="stroke:#181818;stroke-width:0.5;" width="639.6348" x="696.5459" y="857.0781"/><text fill="#000000" font-family="sans-serif" font-size="12" lengthAdjust="spacing" textLength="48.1406" x="706.5459" y="878.2168">Practice</text><text fill="#000000" font-family="sans-serif" font-size="12" font-weight="bold" lengthAdjust="spacing" textLength="228.9961" x="758.501" y="878.2168">Four Establishings of Mindfulness</text><text fill="#000000" font-family="sans-serif" font-size="12" lengthAdjust="spacing" textLength="619.6348" x="706.5459" y="892.1855">(Focus on body, feelings, mind, mental qualities to subdue greed/distress, being ardent, alert, mindful)</text><rect fill="#F1F1F1" height="47.9375" rx="12.5" ry="12.5" style="stroke:#181818;stroke-width:0.5;" width="1250.0352" x="391.3457" y="925.0156"/><text fill="#000000" font-family="sans-serif" font-size="12" font-weight="bold" lengthAdjust="spacing" textLength="180.9492" x="401.3457" y="946.1543">Overcome Five Hindrances</text><text fill="#000000" font-family="sans-serif" font-size="12" lengthAdjust="spacing" textLength="1049.0859" x="582.2949" y="946.1543">\n(Sensual desire, ill will, sloth &amp; drowsiness, restlessness &amp; anxiety, uncertainty);\nnote right: The mind becomes conducive to concentration once hindrances are overcome.</text><text fill="#000000" font-family="sans-serif" font-size="12" lengthAdjust="spacing" textLength="39.9551" x="401.3457" y="960.123">:Attain</text><text fill="#000000" font-family="sans-serif" font-size="12" font-weight="bold" lengthAdjust="spacing" textLength="44.8887" x="445.1152" y="960.123">Jh&#257;nas</text><text fill="#000000" font-family="sans-serif" font-size="12" lengthAdjust="spacing" textLength="604.4707" x="493.8184" y="960.123">(states of deep mental absorption)\n(Remaining equanimous, mindful, and alert within these states)</text><rect fill="#555555" height="6" rx="2.5" ry="2.5" style="stroke:#555555;stroke-width:1;" width="1644.3809" x="21" y="1004.9531"/><rect fill="none" height="232.1094" style="stroke:#000000;stroke-width:1.5;" width="528.9941" x="568.6934" y="1055.7578"/><path d="M909.416,1055.7578 L909.416,1065.0547 L899.416,1075.0547 L568.6934,1075.0547" fill="none" style="stroke:#000000;stroke-width:1.5;"/><text fill="#000000" font-family="sans-serif" font-size="14" lengthAdjust="spacing" textLength="330.7227" x="571.6934" y="1069.7529">3. Training in Heightened Discernment (Pa&#241;&#241;&#257;)</text><rect fill="#F1F1F1" height="47.9375" rx="12.5" ry="12.5" style="stroke:#181818;stroke-width:0.5;" width="508.9941" x="578.6934" y="1092.0547"/><text fill="#000000" font-family="sans-serif" font-size="12" lengthAdjust="spacing" textLength="53.9004" x="588.6934" y="1113.1934">Cultivate</text><text fill="#000000" font-family="sans-serif" font-size="12" font-weight="bold" lengthAdjust="spacing" textLength="198.0293" x="646.4082" y="1113.1934">Seven Factors for Awakening</text><text fill="#000000" font-family="sans-serif" font-size="12" lengthAdjust="spacing" textLength="488.9941" x="588.6934" y="1127.1621">(Mindfulness is a key factor, intrinsic to Right Mindfulness &amp; Right Concentration)</text><rect fill="#F1F1F1" height="47.9375" rx="12.5" ry="12.5" style="stroke:#181818;stroke-width:0.5;" width="305.5801" x="680.4004" y="1159.9922"/><text fill="#000000" font-family="sans-serif" font-size="12" lengthAdjust="spacing" textLength="46.6289" x="690.4004" y="1181.1309">Directly</text><text fill="#000000" font-family="sans-serif" font-size="12" font-weight="bold" lengthAdjust="spacing" textLength="195.2988" x="740.8438" y="1181.1309">Know &amp; Realize the Dhamma</text><text fill="#000000" font-family="sans-serif" font-size="12" lengthAdjust="spacing" textLength="285.5801" x="690.4004" y="1195.0996">(e.g., Four Noble Truths, Dependent Co-arising)</text><rect fill="#F1F1F1" height="47.9375" rx="12.5" ry="12.5" style="stroke:#181818;stroke-width:0.5;" width="358.8066" x="653.7871" y="1227.9297"/><text fill="#000000" font-family="sans-serif" font-size="12" lengthAdjust="spacing" textLength="53.3496" x="663.7871" y="1249.0684">Abandon</text><text fill="#000000" font-family="sans-serif" font-size="12" font-weight="bold" lengthAdjust="spacing" textLength="126.416" x="720.9512" y="1249.0684">Unskillful Thinking</text><text fill="#000000" font-family="sans-serif" font-size="12" lengthAdjust="spacing" textLength="338.8066" x="663.7871" y="1263.0371">(via scrutiny of drawbacks, relaxing thought-fabrication)</text><rect fill="#F1F1F1" height="47.9375" rx="12.5" ry="12.5" style="stroke:#181818;stroke-width:0.5;" width="464.3633" x="601.0088" y="1327.0776"/><text fill="#000000" font-family="sans-serif" font-size="12" lengthAdjust="spacing" textLength="43.4238" x="611.0088" y="1348.2163">Realize</text><text fill="#000000" font-family="sans-serif" font-size="12" font-weight="bold" lengthAdjust="spacing" textLength="378.6621" x="658.2471" y="1348.2163">Awareness-Release &amp; Discernment-Release (Unbinding)</text><text fill="#000000" font-family="sans-serif" font-size="12" lengthAdjust="spacing" textLength="444.3633" x="611.0088" y="1362.1851">(Ending of effluents, culminating in clear knowing, freedom from clinging)</text><ellipse cx="833.1904" cy="1405.0151" fill="none" rx="10" ry="10" style="stroke:#222222;stroke-width:1.5;"/><line style="stroke:#222222;stroke-width:2.5;" x1="827.0032" x2="839.3776" y1="1398.828" y2="1411.2023"/><line style="stroke:#222222;stroke-width:2.5;" x1="839.3776" x2="827.0032" y1="1398.828" y2="1411.2023"/><line style="stroke:#181818;stroke-width:1;" x1="833.1904" x2="833.1904" y1="67.2969" y2="87.2969"/><polygon fill="#181818" points="829.1904,77.2969,833.1904,87.2969,837.1904,77.2969,833.1904,81.2969" style="stroke:#181818;stroke-width:1;"/><line style="stroke:#181818;stroke-width:1;" x1="833.1904" x2="833.1904" y1="201.5313" y2="221.5313"/><polygon fill="#181818" points="829.1904,211.5313,833.1904,221.5313,837.1904,211.5313,833.1904,215.5313" style="stroke:#181818;stroke-width:1;"/><line style="stroke:#181818;stroke-width:1;" x1="833.1904" x2="833.1904" y1="255.5" y2="275.5"/><polygon fill="#181818" points="829.1904,265.5,833.1904,275.5,837.1904,265.5,833.1904,269.5" style="stroke:#181818;stroke-width:1;"/><line style="stroke:#181818;stroke-width:1;" x1="833.1904" x2="833.1904" y1="309.4688" y2="329.4688"/><polygon fill="#181818" points="829.1904,319.4688,833.1904,329.4688,837.1904,319.4688,833.1904,323.4688" style="stroke:#181818;stroke-width:1;"/><line style="stroke:#181818;stroke-width:1;" x1="833.1904" x2="833.1904" y1="363.4375" y2="383.4375"/><polygon fill="#181818" points="829.1904,373.4375,833.1904,383.4375,837.1904,373.4375,833.1904,377.4375" style="stroke:#181818;stroke-width:1;"/><line style="stroke:#181818;stroke-width:1;" x1="833.1904" x2="833.1904" y1="121.2656" y2="167.5625"/><polygon fill="#181818" points="829.1904,157.5625,833.1904,167.5625,837.1904,157.5625,833.1904,161.5625" style="stroke:#181818;stroke-width:1;"/><line style="stroke:#181818;stroke-width:1;" x1="833.1904" x2="833.1904" y1="532.4766" y2="578.1914"/><polygon fill="#181818" points="829.1904,568.1914,833.1904,578.1914,837.1904,568.1914,833.1904,572.1914" style="stroke:#181818;stroke-width:1;"/><line style="stroke:#181818;stroke-width:1;" x1="1016.3633" x2="1016.3633" y1="822.0781" y2="857.0781"/><polygon fill="#181818" points="1012.3633,847.0781,1016.3633,857.0781,1020.3633,847.0781,1016.3633,851.0781" style="stroke:#181818;stroke-width:1;"/><line style="stroke:#181818;stroke-width:1;" x1="1016.3633" x2="1016.3633" y1="905.0156" y2="925.0156"/><polygon fill="#181818" points="1012.3633,915.0156,1016.3633,925.0156,1020.3633,915.0156,1016.3633,919.0156" style="stroke:#181818;stroke-width:1;"/><line style="stroke:#181818;stroke-width:1;" x1="1016.3633" x2="1016.3633" y1="727.8438" y2="774.1406"/><polygon fill="#181818" points="1012.3633,764.1406,1016.3633,774.1406,1020.3633,764.1406,1016.3633,768.1406" style="stroke:#181818;stroke-width:1;"/><line style="stroke:#181818;stroke-width:1;" x1="202.1729" x2="202.1729" y1="673.875" y2="814.4453"/><polygon fill="#181818" points="198.1729,804.4453,202.1729,814.4453,206.1729,804.4453,202.1729,808.4453" style="stroke:#181818;stroke-width:1;"/><line style="stroke:#181818;stroke-width:1;" x1="1016.3633" x2="1016.3633" y1="673.875" y2="693.875"/><polygon fill="#181818" points="1012.3633,683.875,1016.3633,693.875,1020.3633,683.875,1016.3633,687.875" style="stroke:#181818;stroke-width:1;"/><line style="stroke:#181818;stroke-width:1;" x1="202.1729" x2="202.1729" y1="862.3828" y2="1004.9531"/><polygon fill="#181818" points="198.1729,994.9531,202.1729,1004.9531,206.1729,994.9531,202.1729,998.9531" style="stroke:#181818;stroke-width:1;"/><line style="stroke:#181818;stroke-width:1;" x1="1016.3633" x2="1016.3633" y1="972.9531" y2="1004.9531"/><polygon fill="#181818" points="1012.3633,994.9531,1016.3633,1004.9531,1020.3633,994.9531,1016.3633,998.9531" style="stroke:#181818;stroke-width:1;"/><line style="stroke:#181818;stroke-width:1;" x1="833.1904" x2="833.1904" y1="612.1602" y2="667.875"/><polygon fill="#181818" points="829.1904,657.875,833.1904,667.875,837.1904,657.875,833.1904,661.875" style="stroke:#181818;stroke-width:1;"/><line style="stroke:#181818;stroke-width:1;" x1="833.1904" x2="833.1904" y1="417.4063" y2="498.5078"/><polygon fill="#181818" points="829.1904,488.5078,833.1904,498.5078,837.1904,488.5078,833.1904,492.5078" style="stroke:#181818;stroke-width:1;"/><text fill="#000000" font-family="sans-serif" font-size="11" lengthAdjust="spacing" textLength="197.3018" x="837.1904" y="450.7109">:Builds Foundation for Mental Purity</text><line style="stroke:#181818;stroke-width:1;" x1="833.1904" x2="833.1904" y1="1139.9922" y2="1159.9922"/><polygon fill="#181818" points="829.1904,1149.9922,833.1904,1159.9922,837.1904,1149.9922,833.1904,1153.9922" style="stroke:#181818;stroke-width:1;"/><line style="stroke:#181818;stroke-width:1;" x1="833.1904" x2="833.1904" y1="1207.9297" y2="1227.9297"/><polygon fill="#181818" points="829.1904,1217.9297,833.1904,1227.9297,837.1904,1217.9297,833.1904,1221.9297" style="stroke:#181818;stroke-width:1;"/><line style="stroke:#181818;stroke-width:1;" x1="833.1904" x2="833.1904" y1="1010.9531" y2="1092.0547"/><polygon fill="#181818" points="829.1904,1082.0547,833.1904,1092.0547,837.1904,1082.0547,833.1904,1086.0547" style="stroke:#181818;stroke-width:1;"/><text fill="#000000" font-family="sans-serif" font-size="11" lengthAdjust="spacing" textLength="189.084" x="837.1904" y="1044.2578">:Deepens Mental Stability &amp; Purity</text><line style="stroke:#181818;stroke-width:1;" x1="833.1904" x2="833.1904" y1="1275.8672" y2="1327.0776"/><polygon fill="#181818" points="829.1904,1317.0776,833.1904,1327.0776,837.1904,1317.0776,833.1904,1321.0776" style="stroke:#181818;stroke-width:1;"/><text fill="#000000" font-family="sans-serif" font-size="11" lengthAdjust="spacing" textLength="203.9351" x="837.1904" y="1305.5776">:Leads to Profound Insight &amp; Wisdom</text><line style="stroke:#181818;stroke-width:1;" x1="833.1904" x2="833.1904" y1="1375.0151" y2="1395.0151"/><polygon fill="#181818" points="829.1904,1385.0151,833.1904,1395.0151,837.1904,1385.0151,833.1904,1389.0151" style="stroke:#181818;stroke-width:1;"/><!--SRC=[TLRBRXj74BppAnew4EA2Kf3a9W41Q5EAarYn8DdnnPVUdIOvuEuCFJDBcWvyqFVav6-mFYpLiroAigMBj8_PxkhgwceccsgXA-lChAsTn4X3cjGIKhwsZj92w9hJWloCtWQsphhvO10JXpGOd4rjhEmA4N2oVti-6ApmrYRh7HtzVBf_eOTUYPqlaZWnz8yDgHKwlht_h-RH4Vqx83fxsTR9hZa9JKnZ0vU8VHciE1CNTdMkHru91vekk6aOOAk73rQhu5V1vkk470eWVt4Tk4gsadtA834fg4Ipu1jgK8LtfgtIcAA8GZNivX8KSQmpueYpZ5oZ7F7tbeEXMt4Hy3XZaFX3t7dWkD9ed9J7HfJTDIj4G8jTgB-Stz2LDnBoKqrvWIlbySjWSF8RdRreRMqYNVhMcUxCp0UwGe5SqtKRRDe-vloNPpdNHeDnRkxlpCBsf4zbxK5QybGKxtafEoaK1HrNjR2B6gZHJmrlKOBJU1czq- -2tfxHsuM5OY8nego21FdOscYJ88pYxHkbiOhY6SKLnUdWiGoUFKh7LyF9g2Y-Xp6LcTLIEU9RV5SJRpX8_eHH0g15SPN2Ck1EkmDnh6tke1xOBCIHBwE4TKTWak30z0hFVIEEnnzSmqjzfyEHUK75jMK7_JHSWpB8TanrYtU-ZUCS5XYfHAymRrhbOz15yPghfSuOYWAoJEFHp7jpbCcpZW_KpRswaKFOP2GU7rGBD5s3j2ukRLsZUlhOSlrGsm9W0wFwc7b6w2N-WN0CJxtLv2gOefYonUraJqnHV737SZe_7TE6QwrzJ99xEQRKFs2tfT8R_RBnQyZTTIBHBCHpO7iorvKOcn1h3QFP3Mhisafq8EgdZj65KweDbJbU9-USOp_oZ_K3Rlvm9s3Yv4sRw4L03Q1adijxoNMZLEvA65BJJTYCqRQg6zanYgdQF0ywgirAGiDEvJGwVo8rHZRG1Sooh6tKH1d10Q2S-593QZnatYA3IAr7nrbQunx6GoFHwzYM1aOs3oBc9sFXEWWsfZ9x5wn9L8giez95GRe7W4NnPYsXWfRfKkbyjHT5XgEkXbna9De06KD8jC4VU6FjiGY6P8BVW8ESKYslnjLkFDbzif9GHOju8QaNRaVd7znZezXDJIaA8b9dlWe5fU6c0loT6-hDWMfHcv3VeJ_j2uBRSvRIdulxEyVPk40wJ5lfDYAhdaGkemyhZJn2fJVIx5mINiNEDdbOTtnrKvivHFag4nrt-7qNUKVd5_p5SkecQUVNKoG4Xxr3twBz5grJIJtbrhy-wzQwNU4zYfsEh_dRrszVx-z-t9H5SIjhU1OMKV8XPiEORE3ZhfVsuGXaQrdA5hhMusCrEDXWj9MoVwF9l_izq3rxUTYNRdLDeOygOLQA8cyn71M8zBDaO-nMz85pv6dus-jAVnlQj03NKsLArOhm9rYCEbbTx4a9-hqszTs3cM75k6LVrDeonGg1B7n7-nnuKy95ioXh_jGPj6y1_kHWXaVxlVeQtfcdwJhucIvNU4FCjGxflOt6DsZKMLzIKKpwFN9o8_1TI65usABzq-DthWI1Mae6Uf6l5QBCPdMBeu28TGYXTUiGNTSz6sW95hELpdImyGiY_uoer0uwOWPWwty0]--></g></svg>